<?xml version="1.0" encoding="UTF-8"?><svg id="Layer_2" xmlns="http://www.w3.org/2000/svg" viewBox="0 0 1032.54 153.08"><g id="Layer_1-2"><path d="M220.67,141.84l-3.14-7.26c-2.66-6.16-8.34-11.65-10.52-17.99-2.56-7.47-4.17-15.04-6.33-22.86-6.49-2.96-32.32-2.49-40.58-2.15l-32.81,1.34c-5.98,12.18-8.8,26.81-13.03,35.95-.4.87-2.17,2.66-2.15,3.58l.43,20.63-16.79-17.76,9.93-42.82c-7.48-1.59-15.04,1.05-20.52-2-.97.37-2.52.62-3.76.7l7.76-14.81c.12,3.25-.37,5.26-.79,8.16l4.12-7.96,18.19-1.07c8.34-23.61,18.29-45.09,32.6-65.24V0c15.04,7.77,19.57,5.51,34.68,7.93,3.81,2.42,6.53,6.99,8.93,10.78,7.28,11.46,14.87,22.45,20.13,34.89,5.71,13.51,11.25,26.07,15.29,40.79-7.75-10.46-19.27-17.08-25.68-27.72l-24.35-40.41c-2.85-4.72-12.74,1.69-17.08-5.22-1.31,2.59-2.57,6.56-3.93,8.92-8.46,14.66-14.3,29.68-21.6,44.91l-1.32,2.75c-.28.58,1.1,1.53,1.59,1.95.66.57,2.71-2.61,4.07-2.66,17.36-.61,40.53-.24,58.74.66,1.16.06,4.14-.49,4.05-1.32l-.61-5.54c7.05,5.22,13.11,11.58,19.17,18.38,14.28,16.05,9.47,21.18,15.63,41.59-2.07,3.61-6.37,7.61-10.34,11.15Z"/><path d="M853.43,92.7c-1.67,10.6,1.36,14.11-.93,27.21,9.05.96,18.81,1.38,28.35,1.2l32.28-.62c10.72-.21,20.45-1.5,31.45.84-.6,3.81-1.73,10.02-5.19,12.35-5.49,3.7-13.13,3.78-19.77,3.38-26.46-1.58-59.06-3.01-85.06-.23-.85.09-3.19-.36-3.54-1.06-1.14-2.28,3.11-6.44,3.54-20.73.5-16.44,1.79-32.48,1.11-48.92l-1.7-41.18-3.98-17.68,36.25-.15,40.13-.56,1.59,8.17c.57,2.91,1.36,5.12,1.26,8.41l-25.97-.17-30.78-.28-.53,23.83c-.2,8.96-1.09,17.95-.38,26.85.32,3.98,6.51,3.65,9.18,3.55l49.13-1.79c8.38-.3,16.32.47,24.84,1.25,1.73.16,14.03,9.11,14.1,9.25.75,1.46.38,5.99-.5,6.49l-23.35-.59-55.48-.1c-5.4,0-10.31.75-16.05,1.25Z"/><path d="M578.59,91.93h-66.02c-1.62,15.49-.67,32.6,1.26,50.09-6.14-1.09-13.31-3.98-18.59-7.83v-6.1s-1.66-36.3-1.66-36.3l-11.6-1.31-4.27-4.24,1.43,3.85c-3.14-.06-7.73,0-10.05-1.92-1.97-1.64-3.19-6.27-3.87-9.29,1.92-1.28,6.55-.35,7.82,1.39.21-.45,2.72-2.04,4.04-2.1l15.88-.73c.91-3,1.82-7.08,1.72-10.25l-1.18-37.18c-.23-7.29.14-14.13,1.18-21.31,3.17-1.78,5.7-3.37,8.51-4.59l5.5-2.4c.88-.39,3.22-.5,4.16-.42,1.13.09,1.08,4.46-.05,4.61-1.53.21-4.42-1.02-6.24-1.74l4.61,3.8c1.27,1.04.27,5.22.27,7.05l.13,25.93.06,25.46c0,3.11.26,7.05.48,9.83l14.06.53c6.66.25,12.99.42,19.57.21l32.79-1.04c2.41.9,5.3,4.77,7.32,7.1,9.41-.47,5.69-9.48,14.14-5.96,3.74,1.56,7.86-.11,12.65-.3,3.16-.13,37.19,2.18,30.07,7.13-6.64,4.61-36.44,8.1-45.41,7.85-2.06,15.04-2.01,28.86-.63,43.56-5.19,3.41-11.44,5.84-18.69,4.98.79-8.86,2.54-17.15,2.01-25.69l-1.42-22.7Z"/><path d="M286.36,76.68c4.74,4.6,8.52,10.55,11.34,16.56l-20.86-1.16.09,31.86c.02,7,5.35,13.47,2.49,14.14-4.37,1.03-7.84-5.13-18.18-.19-2.3-8.77-.9-17.25-.27-26.01.48-6.61.31-13.07.17-19.71-.2-9.24,2.36-33.13-.59-44.03l-4.49-16.55c5.96.34,11.19,1.25,16.35,1.07l27.07-.95c12.27-.43,29.69,8.47,31.6,21.12,1.35,8.92,1.58,17.67-3.42,25.34-26.8-12.65-2.49-27.78-33.39-28.21l-16.32-.22.02,26.02,8.38.92Z"/><path d="M420.16,117.65c1.98-1.48,5.27-4.69,6.09-2.24l4.98,14.88c-9.57,7.55-22.65,6.75-34.02,5.4-7.54-.89-11.67-2.3-16.92-7.93-4.03-4.31-8.1-8.57-11.03-14.05-4.72-8.79-7.35-17.83-6.9-28.13.38-8.73-.16-17.69,2.75-26.05,6.51-18.69,21.16-26.85,40.5-29.19,8.01-.97,16.53,2.48,23.93,5.66-4.79,6.28-4.88,12.26-5.2,19-4.44-3.99-8.54-9.09-15.06-8.19s-16.98,3.48-21.07,9.58c-6.51,9.69-8.39,22.87-7.46,34.41.65,8.1,4.77,15.62,9.66,21.78l13.03,6.77c4.15,2.16,12.67,1.32,16.73-1.71Z"/><path d="M761.18,112.67l5.32,20.09-7.42-9.53,5.5,11.67-14.34,2.61c-1.02.19-3.27.71-3.87.1-.75-.76-1.52-2.58-2.04-4.04l-6.63-18.57c-6.96-19.51-12.19-38.72-20.58-57.56-3.57-8.02-5.69-15.57-9.2-24.69,6.66-.29,13.23-.03,19.35.59,1.64,8.43,3.87,15.33,7.35,22.74,3.25,6.93,4.67,14.04,7.14,21.29l7.06,20.74c2.15,6.31,3.33,12.17,6.3,18.14l3.86,7.76c-.02-4.4.5-7.64,2.22-11.33Z"/><path d="M768.43,134.68l-1.17-8.08c-.83-5.7-5.81-12.79-4.29-18.87,2.28-9.14,5.71-17.55,8.96-26.14l11-29.06c2.23-5.9,4.25-11.9,5.9-17.48l21.49-2.45-8.68,15.57c-1.99,3.57-2.55,7.85-3.84,11.78-3.69,11.3-7.74,22.17-12.28,33.21l-17.09,41.5Z"/><path d="M317.47,136.98l-3.84.33c-3.99.34,8.23-41.25-13.38-43.21-2.95-6.47-5.84-10.96-10.3-16.97,4.04-1.91,22.21.56,23.03-8.56,3.93,4.79,7.54,8.41,13.38,13.03l-7.36,4.91c16.67,12.26,6.53,19.32,11.48,41.58.37,1.68,3.46,3.97,3.84,6.64-5.66,1.42-10.34,1.71-16.83,2.26Z"/><path d="M596.1,71.24c-.09,4.87-4.91,8.41-8.69,10.52l-8.73-7.84c-.73-18.5-.3-36.9.55-55.81.27-5.9-1.83-11-1.94-17.21,3.53.53,15.92,9.35,18.2,12.35l.91,42.03-.31,15.96Z"/><path d="M674.51,94.3l6.34,19.91c1.91,6,1.39,12.43,2.3,19.56-6.78,1.04-12.35,1.35-19.48.56-1.02-10.59-1.09-29.87-.24-39.92l1.3-15.3c.28-3.31.15-6.42.03-9.83l-.67-19.54c-.23-6.69-.46-13.31,1.26-19.38l18.01-.21c4.59,12.81-1.13,16.26-1.51,35.81l-.42,21.82-3.08-7.37-7-17.83c-1.37,18.07,11.86,21.25,9.37,44.98-1.85-4.76-3.58-8.91-6.22-13.27Z"/><path d="M80.45,90.95c-16.61.24-28.35,5.6-43.1-7.13,11.29-6.18,23.95-6.82,36.46-6.53l12.3.29-5.66,13.38Z"/><path d="M444.9,63.39l-15.34-.13c-4.88-.04-3.17-6.95-3.23-9.82-.11-5.82.68-11.55,5.84-16.08,5.2,6.03,19.5,19.01,12.74,26.03Z"/><path d="M443.41,105.92c10.37-1.14-7.27,20.57-10.09,22.92-3.86-3.68-4.7-9.5-5.15-13.8-.1-.98-2.48-2.59-2.23-3.53s2.07-3.9,3.04-4.01l14.43-1.58Z"/><path d="M982.3,85.89l-17.97-5.53,15.7,7.81-15.52,2.24c-7.96-6.38-18.7-6.49-23.11-13.02l17.47-.13c.38,0,2.05,2.12,2.17,1.76l.66-1.96,12.57,1.09c4.77.41,10.39,2.73,15.32,4.33-.2,3.27-4.2,4.37-7.32,3.41Z"/><path d="M544.74,21.33c6.19,4.56,10.04,20.66.14,24.92-7.55-6.14-6.7-17.38-.14-24.92Z"/><path d="M1032.54,83.69c-6.38,7.49-17.87,7.7-24.54.05,9.31-5.96,16.85-8.78,24.54-.05Z"/><path d="M13.54,91.17l-12.84-5.05c-.93-.37-.93-4.14-.02-4.55l3.87-1.76c6.01-2.74,12.47-1.97,16.73,3.52l-7.74,7.84Z"/><path d="M213.62,146.73l-4.14-10.44c-1.4-3.53-1.88-7.45-1.61-11.22l9.98,17.45c.73,1.27-3.39,4.93-4.23,4.21Z"/><path d="M464.18,88.02l-10.84-.52c-1.51-.07-3.91-3.37-3.23-4.58l10.62-3.9,3.45,9.01Z"/><path d="M960.17,90.56l-9.21,1.65-.71-6.54c4.35,1.84,5.59,2.27,9.92,4.89Z"/></g></svg>