<?xml version="1.0" encoding="UTF-8"?>
<svg id="Layer_2" xmlns="http://www.w3.org/2000/svg" version="1.1" viewBox="0 0 1154.2 395.4">
  <!-- Generator: Adobe Illustrator 30.2.1, SVG Export Plug-In . SVG Version: 2.1.1 Build 1)  -->
  <g id="Layer_1-2">
    <path d="M139.9,298.1c-13.3-3.2-24.5-9.4-23.9-24.9.4-9.6,5.4-17.6,14.4-21.5,12.1-5.2,28.1-5.6,41.2-2.9,21.8,4.5,42.3,12.5,61.3,24.2,15.9-3.3,35.5-11.7,49.3-20,16.2-9.6,30.7-21.4,43.4-35.2,19.3-21,32.6-46.2,38.5-74.2,7-33.5,6-74.4-17.6-101.4-10.4-11.9-24.5-19.4-40.2-21.5-25.4-3.4-50.6,4.5-69.9,21.3-25,21.7-36.9,53.4-37.8,86.1-.2,8.9.7,17.1,4.1,25.2,6.1,14.7,19.4,24.6,35.3,26.2,13,1.3,25.5-3,31.3-16.1-8.6-4.8-13.2-12.5-14.4-21.8-2-15.4,8.3-28.6,23.8-30.4,8.8-1.1,17.2,1.4,23.1,8.3,6.4,7.4,9,16.9,7.7,26.7-2.8,21.2-17.4,36.9-35.6,46.7-23.6,12.6-51.9,15.5-77,6-20-7.6-34.8-23.6-40.6-44.2-2.9-10.2-3.6-20.3-2.6-31.1,2.8-30.5,15.9-59.2,37.1-81.3,17.2-18,39-30.4,63.1-36.7,24.9-6.5,50.8-7.3,76-2.6,32.8,6.1,60.6,24.2,75,54.7,9.7,20.5,12.4,43.3,11.1,65.9-2.5,44.4-24,81.9-57.7,110.2-17.7,14.9-37.3,26.6-58.4,36-14,6.2-27.9,11.6-42.7,15.2-.9.2-2.1.8-2.2,1.4-.1,1,.6,1.9,1.5,2.5l35.7,23.2c27.4,17.8,59,37.6,89.1,49.9,16.1,6.6,37.2,13.2,54.3,9.4,9.9-2.2,10.4-11.6,10.9-19.5.8-11.8,6.6-19.9,18.7-21.3,7.5-.9,14.5,1.7,19.2,7.7,4.3,5.4,7,12.2,6.7,19.3-.2,5.7-3.2,10.6-7,14.7-11.2,11.7-31.3,17.7-47,20.2-18.6,3.1-37.2,3.6-56.1,2-37.9-3.2-68.3-17.9-99-39.5-11.6-8.4-22.7-16.6-33.6-25.8l-37.8-31.6c-16.4,1.7-32.8,2.7-49.5,2.5-7.3,0-14-.8-21-2.1h-.2Z"/>
    <path d="M141.5,185.9c-1.9,1.1-4.5,2.7-7,3.8l-12.3,5.2c-19.2,8.1-53.1,9.1-73.6,1.5-14.9-5.5-27-15.4-35.4-28.9-16.7-26.7-17.2-69.9-3.5-98.1,5.1-10.5,12.3-19.8,21.4-26.9,19.3-15.1,42.2-19.4,66.3-18.2,13.6.7,26.4,3.8,38.6,9.4,1.7.8,3.4,1.3,4.9,2.5l-16.9,38.8c-1.5-.6-3-1.2-4.5-2-19.7-10.8-47.9-11-61.8,9.5-8.6,12.6-9,29-6.9,43.7.8,5.9,2.6,11.5,5.5,16.6,7.2,12.6,20.4,16.1,34.1,15.9,13.8-.2,22.6-3.9,35.5-9.9l15.8,37.1h-.2Z"/>
    <path d="M567.6,170.3c8.1-.9,15.8-2.1,23.4-4.9l6.7-2.4c16.6-6.3,34.4-19.3,37.3-38.4l-3.2,1.4c-12.6,5.3-32.5,5.8-44.9-2.3-7.1-4.6-12.2-11.1-15.4-19-10.7-26.5-3.3-60.3,23.7-74.3,13.4-6.9,33.9-9.2,48.2-4.6,18.9,6,28,21,32.9,39.3,4.9,18.3,4,45.7-.7,64.9-5.1,20.5-16.4,39-33.3,51.4-7.8,5.7-16,9.9-25,13.5-15.1,5.3-28.2,7.6-44.3,8.9l-5.4-33.5h0ZM635.3,92.7c0-8.3.6-27.8-8.2-31.7-5.6-2.4-11.5-1-15.2,3.7-2.9,3.7-3.8,8.1-3.9,12.7,0,6.7,1.5,13.1,7.3,16.9,4.9,3.2,14.7,1.4,20-1.6h0Z"/>
    <path d="M474.1,204.4l-36.6-18.8,66.3-118.1h-66.3V27.4h116.7v30.2c0,1.6-1.3,3.4-2.2,4.8l-78,141.9h0Z"/>
    <path d="M1057.2,251.3l-2.8-10.9c24.2-.3,55-5.9,55.9-36.2.6-18.5-11.9-28.1-28.5-32.1-5.8-1.4-11.4-1.9-17.4-2.6-1-.1-2.5-2-3.2-2.9l2.4-15.5c3-19.4,7.5-38.4,12.1-57.8l58.6-1.7c5.9-.2,9.3-6.9,11.7-11.5,2.6.4,5.4,1.2,8.2,2-2,9.3-5.2,18-9.3,26.6-2.3,3.6-5.3,6.2-9.6,6.6h-49.4l-8.9,39.5c9,.6,17.1,1.7,25.3,4,6.8,2.1,12.9,4.7,18.6,8.8,7.5,5.7,12.8,13.4,14.6,22.7,1.8,9.4,1.2,18.6-2.1,27.4-10.7,29.1-49.5,33.5-76.2,33.5h0Z"/>
    <path d="M1023.1,198.2h-82.1l-2.5-5.9c-.3-.8-.4-2.3,0-3.1,23.3-12.6,65.7-35.4,64.4-66.4-.4-8.8-5.2-16.4-13.3-19.7-8.7-3.5-18.5-3.1-26.8,1.2-6.5,3.4-11.1,8.6-14.9,14.8l-7.3-4.1c7.9-18.8,23.6-30.7,44.5-31.1,9.5-.2,18.7,1.4,27,5.9s14.7,12.1,16.7,21.5c2.6,12.2-.9,24.4-8.8,33.9-11.1,13.6-30.3,23.9-45.9,32.1-.7.4-.8,2-.4,2.9l56.4-4.7c5.8-3.8,7.8-11.1,10.6-17.5l7.1,2.6-6.6,25.8c-1.1,4.2-1.3,8.6-2.1,13l-15.9-1.2h0Z"/>
    <path d="M782,198.2h-83.6c0-.1-2.5-6-2.5-6-.3-.8-.4-2.3,0-3.1,17.8-9.5,38.8-21.5,52.2-36.7,8.1-9.2,14.2-21.3,11.6-33.8-1.4-7-6-12.8-12.8-15.5-8.7-3.5-18.5-3.1-26.8,1.2-6.5,3.4-11.1,8.6-14.9,14.8l-7.3-4c8.2-19.4,24.4-31.2,46-31.1,9.2,0,17.9,1.7,25.8,6.1s14.4,12,16.4,21.4c2.5,12.1-.9,24.1-8.5,33.6-11.1,13.7-30.4,24.1-46.1,32.3-.8.4-.8,2-.4,2.9l56.4-4.7c5.8-3.8,7.9-11.1,10.6-17.4l7.2,2.4-6.6,26c-1.1,4.3-1.3,8.6-2,13l-14.4-1.2h0l-.3-.2Z"/>
    <path d="M927,144.4c0,31.6-25.6,57.3-57.3,57.3s-57.3-25.6-57.3-57.3,25.6-57.3,57.3-57.3,57.3,25.6,57.3,57.3h0ZM905.5,163.3c5.3-13,5-27.4-.5-39.9-5.9-13.7-18.4-21.6-33.1-22.2-14.8-.6-28.2,6.2-35.5,19.3-7.5,13.4-8.1,29.7-1.6,43.6,6.9,14.8,21.4,22.8,37.6,22,14.7-.8,27.3-8.6,33-22.7h0Z"/>
  </g>
</svg>