<?xml version="1.0" encoding="UTF-8"?><svg id="Layer_2" xmlns="http://www.w3.org/2000/svg" viewBox="0 0 1225 478"><defs><style>.cls-1{fill:#fff;}</style></defs><g id="Layer_1-2"><path class="cls-1" d="M0,0h1225v478H0V0ZM179.5,356.88c7.02,1.28,13.76,2,21.04,2.08,16.73.18,33.09-.83,49.54-2.5l37.76,31.65c10.98,9.2,22.02,17.48,33.64,25.84,30.64,21.53,61.06,36.24,98.99,39.46,18.88,1.6,37.44,1.06,56.1-2.01,15.75-2.59,35.86-8.55,47.01-20.25,3.87-4.07,6.79-9.01,7.03-14.69.3-7.11-2.37-13.89-6.68-19.33-4.74-5.98-11.76-8.57-19.23-7.72-12.15,1.38-17.98,9.56-18.74,21.31-.52,7.94-1.03,17.26-10.93,19.51-17.07,3.89-38.19-2.79-54.26-9.35-30.15-12.31-61.71-32.09-89.11-49.92l-35.72-23.24c-.93-.61-1.68-1.51-1.55-2.47.09-.65,1.29-1.19,2.2-1.41,14.85-3.57,28.73-9,42.72-15.18,21.12-9.34,40.7-21.09,58.39-35.96,33.67-28.29,55.19-65.74,57.71-110.19,1.28-22.63-1.44-45.39-11.11-65.93-14.36-30.5-42.24-48.65-75-54.73-25.2-4.68-51.14-3.88-76,2.6-24.11,6.29-45.96,18.72-63.12,36.69-21.14,22.13-34.27,50.83-37.05,81.29-.99,10.79-.31,20.85,2.56,31.06,5.78,20.58,20.57,36.59,40.61,44.17,25.09,9.5,53.4,6.68,77.01-5.95,18.2-9.73,32.84-25.51,35.59-46.68,1.27-9.8-1.31-19.27-7.69-26.67-5.91-6.85-14.35-9.36-23.14-8.3-15.47,1.88-25.83,15.08-23.79,30.44,1.24,9.32,5.84,16.96,14.4,21.78-5.75,13.13-18.24,17.41-31.27,16.13-15.91-1.57-29.14-11.44-35.27-26.18-3.38-8.12-4.28-16.37-4.06-25.24.82-32.68,12.79-64.46,37.78-86.12,19.34-16.76,44.51-24.66,69.91-21.3,15.78,2.09,29.83,9.58,40.25,21.51,23.58,26.99,24.66,67.94,17.62,101.41-5.87,27.92-19.22,53.16-38.49,74.16-12.69,13.83-27.22,25.58-43.37,35.18-13.83,8.22-33.39,16.67-49.31,19.95-19.02-11.61-39.56-19.69-61.31-24.17-13.08-2.69-29.03-2.33-41.15,2.91-8.97,3.88-13.96,11.84-14.36,21.47-.64,15.47,10.55,21.74,23.87,24.89ZM607.18,229.13l5.37,33.48c16.1-1.27,29.15-3.55,44.27-8.89,8.96-3.54,17.17-7.8,24.97-13.49,16.98-12.4,28.25-30.93,33.34-51.44,4.75-19.14,5.76-45.86.72-64.85s-13.99-33.24-32.86-39.28c-14.31-4.58-34.85-2.37-48.25,4.58-27.03,14.02-34.42,47.85-23.73,74.33,3.19,7.89,8.31,14.39,15.43,18.96,12.47,8.01,32.33,7.54,44.92,2.26l3.22-1.35c-2.86,19.17-20.71,32.14-37.31,38.44l-6.68,2.39c-7.56,2.7-15.34,3.99-23.41,4.85ZM181.11,244.67l-15.76-37.09c-12.82,5.94-21.68,9.72-35.46,9.88-13.7.16-26.86-3.31-34.06-15.9-2.9-5.07-4.66-10.68-5.49-16.58-2.08-14.69-1.67-31.06,6.89-43.69,13.93-20.56,42.17-20.29,61.85-9.53,1.54.84,2.99,1.42,4.53,2l16.86-38.77c-1.52-1.16-3.14-1.69-4.87-2.48-12.24-5.61-24.99-8.74-38.59-9.42-24.09-1.2-47.07,3.12-66.34,18.18-9.08,7.09-16.32,16.4-21.4,26.88-13.69,28.21-13.13,71.4,3.53,98.09,8.42,13.48,20.52,23.39,35.42,28.93,20.51,7.63,54.35,6.62,73.57-1.49l12.32-5.2c2.56-1.08,5.08-2.65,7.02-3.8ZM513.66,263.23l77.97-141.88c.93-1.44,2.24-3.21,2.24-4.83l-.02-30.25h-116.74s-.03,39.97-.03,39.97l66.26.08-66.26,118.12,36.59,18.79ZM1096.77,310.13c26.71-.04,65.54-4.42,76.21-33.49,3.24-8.83,3.85-18.18,2.08-27.4s-7.03-17.04-14.55-22.74c-5.66-4.15-11.82-6.79-18.57-8.84-8.22-2.3-16.29-3.37-25.32-4.02l8.88-39.49h49.37c4.29-.49,7.36-3.03,9.61-6.64,4.06-8.56,7.22-17.3,9.27-26.6-2.83-.82-5.57-1.57-8.18-1.99-2.4,4.59-5.82,11.34-11.67,11.52l-58.64,1.71c-4.57,19.35-9.02,38.35-12.05,57.79l-2.42,15.53c.7.85,2.15,2.74,3.19,2.86,6.03.67,11.62,1.21,17.41,2.6,16.56,3.98,29.1,13.6,28.49,32.08-.99,30.27-31.78,35.88-55.95,36.19l2.84,10.93ZM821.64,257.01l14.41,1.17c.77-4.38.95-8.71,2.05-13l6.64-25.99-7.16-2.36c-2.73,6.28-4.82,13.63-10.59,17.42l-56.39,4.71c-.36-.89-.31-2.51.44-2.9,15.71-8.19,34.97-18.61,46.09-32.35,7.67-9.48,11.08-21.52,8.53-33.58-1.97-9.34-8.11-16.72-16.36-21.37s-16.66-6.1-25.82-6.14c-21.56-.11-37.8,11.71-45.98,31.13l7.29,4.04c3.82-6.21,8.36-11.4,14.87-14.75,8.31-4.28,18.15-4.68,26.83-1.18,6.73,2.72,11.34,8.49,12.79,15.52,2.57,12.52-3.5,24.57-11.64,33.78-13.43,15.21-34.4,27.26-52.22,36.73-.34.87-.25,2.37.08,3.15l2.53,5.87,83.6.1ZM1062.7,256.96l15.87,1.22c.78-4.36.97-8.74,2.05-12.97l6.56-25.84-7.05-2.61c-2.77,6.43-4.86,13.7-10.62,17.48l-56.4,4.71c-.33-.9-.28-2.51.44-2.89,15.62-8.14,34.75-18.5,45.88-32.07,7.83-9.54,11.34-21.69,8.76-33.89-2.01-9.46-8.28-16.91-16.7-21.54s-17.46-6.1-27-5.93c-20.84.37-36.56,12.32-44.47,31.09l7.29,4.06c3.82-6.21,8.37-11.4,14.89-14.76,8.31-4.27,18.13-4.68,26.8-1.18,8.17,3.3,12.99,10.94,13.35,19.69,1.29,30.96-41.11,53.72-64.42,66.36-.31.86-.23,2.35.1,3.12l2.53,5.89,82.14.05ZM966.64,203.22c0-31.62-25.64-57.26-57.26-57.26s-57.26,25.64-57.26,57.26,25.64,57.26,57.26,57.26,57.26-25.64,57.26-57.26Z"/><path d="M179.5,356.88c-13.32-3.16-24.51-9.42-23.87-24.89.4-9.63,5.38-17.59,14.36-21.47,12.12-5.25,28.08-5.61,41.15-2.91,21.75,4.48,42.29,12.55,61.31,24.17,15.92-3.28,35.47-11.74,49.31-19.95,16.16-9.6,30.69-21.35,43.37-35.18,19.27-21,32.62-46.24,38.49-74.16,7.04-33.47,5.96-74.42-17.62-101.41-10.42-11.93-24.47-19.42-40.25-21.51-25.4-3.36-50.57,4.54-69.91,21.3-24.99,21.67-36.95,53.44-37.78,86.12-.22,8.87.68,17.12,4.06,25.24,6.12,14.74,19.36,24.61,35.27,26.18,13.04,1.29,25.52-2.99,31.27-16.13-8.56-4.82-13.17-12.46-14.4-21.78-2.04-15.36,8.32-28.57,23.79-30.44,8.79-1.07,17.23,1.45,23.14,8.3,6.38,7.4,8.97,16.87,7.69,26.67-2.75,21.17-17.39,36.95-35.59,46.68-23.61,12.63-51.92,15.45-77.01,5.95-20.04-7.58-34.82-23.59-40.61-44.17-2.87-10.21-3.55-20.27-2.56-31.06,2.78-30.46,15.91-59.16,37.05-81.29,17.16-17.97,39.01-30.4,63.12-36.69,24.86-6.49,50.8-7.28,76-2.6,32.77,6.09,60.65,24.24,75,54.73,9.67,20.54,12.4,43.3,11.11,65.93-2.52,44.45-24.04,81.9-57.71,110.19-17.7,14.87-37.28,26.63-58.39,35.96-13.99,6.19-27.88,11.62-42.72,15.18-.91.22-2.11.76-2.2,1.41-.14.96.61,1.86,1.55,2.47l35.72,23.24c27.41,17.83,58.96,37.61,89.11,49.92,16.07,6.56,37.19,13.24,54.26,9.35,9.9-2.25,10.41-11.57,10.93-19.51.76-11.76,6.59-19.93,18.74-21.31,7.48-.85,14.49,1.74,19.23,7.72,4.31,5.44,6.98,12.23,6.68,19.33-.24,5.68-3.15,10.62-7.03,14.69-11.15,11.7-31.26,17.66-47.01,20.25-18.65,3.07-37.21,3.62-56.1,2.01-37.93-3.22-68.34-17.93-98.99-39.46-11.61-8.36-22.66-16.64-33.64-25.84l-37.76-31.65c-16.45,1.67-32.81,2.68-49.54,2.5-7.28-.08-14.01-.8-21.04-2.08Z"/><path d="M181.11,244.67c-1.93,1.15-4.46,2.72-7.02,3.8l-12.32,5.2c-19.23,8.11-53.06,9.11-73.57,1.49-14.9-5.54-27-15.45-35.42-28.93-16.67-26.69-17.22-69.88-3.53-98.09,5.09-10.48,12.32-19.79,21.4-26.88,19.28-15.06,42.25-19.38,66.34-18.18,13.6.68,26.35,3.8,38.59,9.42,1.74.8,3.35,1.33,4.87,2.48l-16.86,38.77c-1.54-.58-2.99-1.16-4.53-2-19.68-10.76-47.92-11.03-61.85,9.53-8.56,12.63-8.96,29-6.89,43.69.84,5.91,2.59,11.51,5.49,16.58,7.2,12.58,20.37,16.05,34.06,15.9,13.78-.16,22.64-3.94,35.46-9.88l15.76,37.09Z"/><path d="M607.18,229.13c8.07-.86,15.85-2.15,23.41-4.85l6.68-2.39c16.6-6.31,34.44-19.27,37.31-38.44l-3.22,1.35c-12.59,5.28-32.45,5.75-44.92-2.26-7.12-4.57-12.24-11.07-15.43-18.96-10.69-26.48-3.3-60.31,23.73-74.33,13.4-6.95,33.94-9.15,48.25-4.58,18.87,6.04,28,20.99,32.86,39.28s4.03,45.7-.72,64.85c-5.09,20.51-16.36,39.04-33.34,51.44-7.8,5.69-16,9.95-24.97,13.49-15.12,5.34-28.17,7.62-44.27,8.89l-5.37-33.48ZM674.89,151.53c0-8.3.58-27.82-8.23-31.67-5.59-2.44-11.54-1.03-15.22,3.65-2.89,3.67-3.77,8.07-3.86,12.73-.12,6.68,1.48,13.13,7.3,16.9,4.91,3.19,14.7,1.37,20.01-1.6Z"/><path d="M513.66,263.23l-36.59-18.79,66.26-118.12-66.26-.08.03-39.97h116.74s.02,30.25.02,30.25c0,1.63-1.31,3.39-2.24,4.83l-77.97,141.88Z"/><path d="M1096.77,310.13l-2.84-10.93c24.17-.31,54.96-5.92,55.95-36.19.61-18.48-11.93-28.1-28.49-32.08-5.78-1.39-11.38-1.93-17.41-2.6-1.03-.11-2.49-2.01-3.19-2.86l2.42-15.53c3.02-19.44,7.48-38.44,12.05-57.79l58.64-1.71c5.86-.17,9.28-6.92,11.67-11.52,2.61.42,5.36,1.17,8.18,1.99-2.04,9.3-5.2,18.04-9.27,26.6-2.26,3.62-5.32,6.16-9.61,6.65h-49.37s-8.88,39.48-8.88,39.48c9.03.65,17.1,1.72,25.32,4.02,6.75,2.05,12.91,4.69,18.57,8.84,7.51,5.7,12.75,13.38,14.55,22.74s1.16,18.57-2.08,27.4c-10.68,29.07-49.5,33.45-76.21,33.49Z"/><path d="M1062.7,256.96l-82.14-.05-2.53-5.89c-.33-.77-.41-2.26-.1-3.12,23.32-12.64,65.71-35.4,64.42-66.36-.36-8.75-5.18-16.39-13.35-19.69-8.67-3.5-18.49-3.09-26.8,1.18-6.52,3.35-11.07,8.55-14.89,14.76l-7.29-4.06c7.91-18.77,23.64-30.73,44.47-31.09,9.53-.17,18.71,1.38,27,5.93s14.69,12.08,16.7,21.54c2.59,12.2-.93,24.35-8.76,33.89-11.14,13.57-30.26,23.93-45.88,32.07-.72.38-.78,1.99-.44,2.89l56.4-4.71c5.76-3.78,7.85-11.05,10.62-17.48l7.05,2.61-6.56,25.84c-1.07,4.24-1.27,8.61-2.05,12.97l-15.87-1.22Z"/><path d="M821.64,257.01l-83.6-.1-2.53-5.87c-.34-.78-.42-2.27-.08-3.15,17.82-9.47,38.79-21.52,52.22-36.73,8.14-9.21,14.21-21.26,11.64-33.78-1.44-7.03-6.05-12.8-12.79-15.52-8.67-3.51-18.52-3.1-26.83,1.18-6.52,3.35-11.06,8.55-14.87,14.75l-7.29-4.04c8.18-19.41,24.43-31.24,45.98-31.13,9.16.05,17.9,1.69,25.82,6.14s14.39,12.03,16.36,21.37c2.55,12.06-.86,24.1-8.53,33.58-11.12,13.74-30.38,24.15-46.09,32.35-.75.39-.8,2.01-.44,2.9l56.39-4.71c5.76-3.78,7.86-11.14,10.59-17.42l7.16,2.36-6.64,25.99c-1.09,4.28-1.28,8.62-2.05,13l-14.41-1.17Z"/><path d="M966.64,203.22c0,31.62-25.64,57.26-57.26,57.26s-57.26-25.64-57.26-57.26,25.64-57.26,57.26-57.26,57.26,25.64,57.26,57.26ZM945.06,222.09c5.3-12.96,4.98-27.38-.45-39.95-5.92-13.7-18.41-21.63-33.1-22.22-14.84-.6-28.15,6.22-35.45,19.34-7.45,13.38-8.1,29.68-1.61,43.55,6.94,14.83,21.38,22.82,37.56,21.97,14.72-.77,27.28-8.58,33.05-22.68Z"/><path class="cls-1" d="M674.89,151.53c-5.32,2.97-15.1,4.79-20.01,1.6-5.81-3.77-7.42-10.22-7.3-16.9.08-4.66.96-9.05,3.86-12.73,3.68-4.68,9.63-6.08,15.22-3.65,8.82,3.85,8.23,23.37,8.23,31.67Z"/><path class="cls-1" d="M945.06,222.09c-5.77,14.1-18.33,21.91-33.05,22.68-16.18.85-30.62-7.14-37.56-21.97-6.48-13.87-5.84-30.17,1.61-43.55,7.3-13.11,20.6-19.94,35.45-19.34,14.69.59,27.17,8.53,33.1,22.22,5.44,12.57,5.76,26.99.45,39.95Z"/></g></svg>