<?xml version="1.0" encoding="UTF-8"?><svg id="Layer_2" xmlns="http://www.w3.org/2000/svg" viewBox="0 0 778.41 756.67"><g id="Layer_1-2"><path d="M35.68,656.82c.89,38.41,33.62,15.27,41.14,31.75-2.58,15.61-38.02,17.66-50.81,20.92-8.49,1.13-21.36,3.53-25.77-5.51-1.93-15.65,8.9-32.46,8.81-48.75-.81-14.07-3.8-29.17-2.25-43.77.64-14.76.87-30.85,10.76-42.66,14.96-16.05,36.69-29.59,58.83-30.79,16.11-.15,27.73,14.73,37.67,25.83,16.57,19.41,29.61,40.93,44.84,61.41,7.79,10.61,14.35,21.65,22.49,31.69,6.44,8.41,15.01,2.72,13.79-5.57-.67-4.04-7.53-2.86-5.99-5.34,9.2-24.24,15.36-8.01,22.67-34.24,5.56-17.34,12.48-36.41,15.28-54.05.31-3.03,12.02-23.37,1.41-18.07-3.39,2.01-7.47,9.53-9.71,10.59-.47.05-.51-.42-.45-.88.48-2.24,2.53-7.2,3.83-10.14,4.45-9.27,8.29-18.53,11.28-28.22,3.07-11.03,13.45-15.54,17.43-26.22.88-3.27,3.13-8.02,1.26-10.91-1.07-.62-2.39.29-3.54.06-3.06-1.16,1.03-13.39,4.14-13.4,2.19-.2,3.85,1.38,5.23-1.28,5.24-8.11,7.9-17.61,8.19-26.98,1.6-10.52,4.19-21.45,4.83-31.67.32-3.43,2.16-5.26,3.92-7.86,2.08-9.36,1.72-18.72,7.35-27.85,1.1-3.96,10.64-14.42,2.29-14.1-7.24,1.36-15.7,1.99-23.15,3.61-7.82,1.1-15.71,1.06-23.63,2.35-14.9,1.87-28.67,6.68-43.45,9.55-19.82,3.9-41.58.35-60.5,6.99-16.91,8.57-22.73,29.45-30.33,45.68-5.14,16.52-17.04,37.24-35.7,23.1-13.6-15,5.04-33.34,10.76-47.87,5.79-12.5,12.87-24.65,22.39-34.47,7.95-9.2,16.09-21.73,25.8-30.87,14.57-12.29,26.72-25.92,41.89-37.48,28.6-21.33,58.31-42.58,91.96-54.37,22.24-7.72,44.52-13.53,67.01-20.28,8.72-2.76,17.56-3.65,25.84-7.28,9.99-4.19,31.41-9.34,32.32,6.74-2.43,10.47-14.13,17.11-18.85,26.92-4.52,7.89-6.95,16.96-11.15,25.06-4.62,10.93-13.9,23.61-10.82,35.65,3.31,7.54,13.32,4.67,19.87,4.53,8.38,0,16.48-.75,24.87-1.08,16.51-.63,32.8,4.08,49.03,2.31,21.94-.17,53.4-7.96,55.7-34.16,1.79-9.47,5.55-18.2,8.32-27.83,2.65-12.53,4.27-25.24,8.75-36.87,4.54-18.59,8.86-36.89,10.31-56.45,1.57-10.45,4.69-21.4,6.52-31.86,1.5-11.74,5.05-22.88,7.97-34.34,4.34-13.46-1-27.03-1.35-40.6,1.27-18.42,14.85-36.76,30.6-45.23,26.82-11.88,31.29,26.15,41.81,42.25,22.12,41.79,43.07,71.97,88.15,90.63,12.04,6.18,35.93,13.15,35.7-8.17.2-19.73-19.13-32.03-32.25-43.71-6.21-5.42-23.49-2.42-25.14-11.65.42-10.6,11.18-22.6,19.29-29.6,16.31-14.54,50.61-11.88,65.16,3.19,13.32,14.87,13.6,55.04,14.23,75.1-.14,6.81-.81,13.65-.68,20.48-.59,21.11,15.64,32.57-13.03,39.85-20.21,4.17-35.59,12.46-54.05-.89-9.77-5.01-21.37-4.7-30.9-10.01-11.16-7.86-23.66-12.25-34.66-20.18-14.37-13.7-10.59-13.83-30.1-20.92-17.88-4.68-47.71-64.55-52.92-24.61-.56,10.75-7.5,19.25-10.15,28.59-1.38,6.58-.25,13.28-.2,20.15.34,8.03-1.67,16.08-3.87,23.66-5.18,14.94-7.21,30.21-8.89,45.93-4.93,22.38-2.38,24.51,19.54,19.92,19.68-4.43,39.44-3.61,58.09,3.36,11.69,4.68,29.39,5.88,35.51,18.41,2.89,8.26-5.24,16.75-7.56,23.65-5.14,13.63,26.02,14.78,34.66,20.34,9.39,4.03,17.18,10.17,25.39,16.37,6.4,5.22,12.5,11.11,18.59,14.98,8.3,5.31,17.61,9.26,25.29,15.66,15.12,11.97,15.07,34.13,4.41,49.03-9.65,14.11-24.8,23.28-39.68,31.53-19.26,11.28-40.86,17.62-62.64,21.21-15.08,2.55-30.14,5.72-45.46,5.95-20.64.29-41.32-3.08-62.12-2.17-14.29.29-27.62,1.38-42.01,3.11-8.96.92-19.11,1.88-26.89-3.23-9.66-5.26-6.41-16.09-12.26-22.36-5.84-3.77-15.45-1.96-21.71-4.48-8.97-3.48,1.08-10.88,5.03-14.52,3.88-3.52,7.4-7.31,10.32-11.68,8.47-12.79,11.45-29.07,17.6-42.71,7.81-16.74,4.22-27.93-15.87-28.69-29.03-.43-58.08,2.61-87.2,2.56-40.45-.89-38.27,17.19-46.28,49.2-4.58,15.92-13.75,30.27-15.81,46.76-4.91,28.09-18.25,53.65-28.58,80.12-2.48,8.66-1.95,18.4-4.96,27.33-2.47,9.31-5.59,20.68-13.26,26.3-4.27,2.93-6.96,3.51-4.93,8.86,3.64,11.17-.98,21.11-4.64,32.34-2.07,9.49-10.26,17.79-14.47,25.21-.57,1.79.05,3.74.4,5.52.94,4.64.21,8.74-1.17,13.68-3.99,17.17-10.64,34.76-5.3,52.39,9.53,39.9-21.29,43.93-52.49,48.33-18.79,2.63-21.69,6.33-27.3-14.9-3.53-10.81-8.2-21.36-11.38-31.24-1.84-6.52-2.11-13.46-4.23-19.93-1.2-4.28-4.06-7.69-6.85-11.06-4.87-5.41-7.66-10.84-11.9-16.65-2.75-4.37-6.73-9.89-9.34-14.92-3.73-7.11-4.78-16.14-12.24-20.22-6.83-3.75-13.43-7.69-19.68-13.02-7.8-4.59-15.06-13.92-24.88-12.24-13.23,5.74-8.26,43.26-9.12,56.17v.19ZM542.62,86.74c3.88,2.56,9.03-4.06,5-6.76-3.6-2.48-8.4,3.9-5.13,6.66l.13.1ZM756.9,84.56c2.02-1,1.42-3.45-.69-3.76-1.39-.28-2.84.84-2.93,1.86-.14,1.69,2.06,2.64,3.45,1.98l.17-.08ZM719.48,86.46c1.32-.06,2.37-1.52,1.56-2.67-.63-1-2.5-1.11-3.34-.2-1.22,1.19.01,3.04,1.58,2.88h.21ZM760.78,99.67c.05-2.72-5.36-4.33-5.47-.9.07,2.77,5.08,4.36,5.47,1.07v-.17ZM541.8,103.79c1.24-1.13-1.15-3.43-2.29-2.26-1.16,1.17.93,3.23,2.17,2.36l.12-.1ZM533.66,112.36c2.13.43,3.03-4.48,1.14-5.18-2.1-.34-2.75,4.24-1.27,5.12l.13.06ZM593.84,115.29c1.6-.03,2.19-3.92.23-3.8-1.27.32-1.82,3.31-.37,3.78l.15.02ZM536.24,129.67c3.76-.32,4.58-5.99,4.33-9.23-.24-2.15-.58-5.66-3.22-5.87-4.74.24-7.67,14.7-1.22,15.11h.12ZM732.67,118.71c1.89-1.91-1.38-5.84-3.11-3-1.26,1.8,1.32,4.85,2.99,3.12l.12-.12ZM606.1,127.87c1.97-2,1.1-6.44-.62-8.49-.98-1.3-2.63-1.4-3.5-.03-2.05,2.54.41,10.82,4.01,8.62l.11-.1ZM625.95,131.43c.41-1.59-.73-4.49-2.06-5.98-1.41-1.67-5.61-5.05-7.01-2.08-.8,2.05,1.4,7.05,4.22,8.6,1.52,1.04,4.2,1.9,4.81-.39l.03-.15ZM656.28,133.7c1.09.29,2.02-.78,1.87-1.83-.09-1.19-1.51-2.18-2.44-1.74-1.47.68-1.04,3.07.4,3.51l.18.05ZM535.27,142.58c1.2-2.16-.21-7.27-2.83-7.83-1.66.45-1.77,2.95-1.58,4.42.52,2.82,2.83,5.84,4.33,3.55l.08-.14ZM527.36,148.55c.58,1.22,1.18.8,1.5-.22.72-1.8,1.01-5.98.07-8.5-.28-.65-.75-2.42-1.57-1.92-1.72,2.67-1.32,7.77-.07,10.5l.07.14ZM643.79,138.43c-.78-.85-2.56-.44-3.42.24-.94.72-.01,1.87,1.32,1.67.84-.16,2.35-.81,2.16-1.81l-.06-.1ZM634.56,145.88c1.02.36,1.5-1,1.75-1.9.34-1.19.23-2.75-1.08-3.13-1.83-.23-2.57,4.34-.81,4.96l.13.06ZM684.29,159.49c-1.54,2.13,2.47,6.6,4.41,3.99,1.04-2.08-2.34-5.81-4.31-4.1l-.1.11ZM529.41,168.15c2.33-.73.19-6.88-1.62-7.5-1.2-.42-1.34,1.07-1.3,2.09.11,1.79.77,5.2,2.8,5.42h.12ZM520.43,171.66c1.98-.32,2.07-6.93-.29-6.46-2.23.57-2.8,6.77.14,6.49l.14-.03ZM516.6,189.97c.81-1.04,1.1-3.77-.35-4.43-.79-.15-1.82,2.1-1.32,3.51.18.67.85,1.72,1.58,1.03l.1-.11ZM524.75,192.23c-1.04-2.71-6.69-1.9-5.78,1.43.7,3.35,6.41,1.98,5.83-1.26l-.05-.17ZM521.22,218.7c.34-2.9-3.7-1.96-3.03.49.49,1.52,2.66,1.14,2.98-.31l.04-.19ZM500.83,241.65c1.68,2.08,7.62-2.16,6.08-4.92-2.18-1.9-7.07,2.35-6.14,4.8l.06.12ZM257.65,241.4c-1.14-1.38-4.55.5-3.41,2.23,1.05,1.45,4.28-.46,3.49-2.1l-.08-.13ZM165.91,351.98c16.64-2.58,33.89-6.49,50.33-10.73,13.87-3.11,27.08-6.57,40.32-10.83,6.55-2.08,13.49-4.33,18.53-9,2.99-2.65,4.13-4.57,6.04-5.89,1.25-.86,2.55-.69,4.25-.61,3.71.41,6.82-1.35,8.56-5.31,4.89-10.12,3.19-23.75.82-34.66-1.86-7.61-2.47-23.12-10.7-25.5-4.33-1.52-11.07,1.24-15.91,3.52-5.43,2.53-11.04,5.05-16.23,8.02-7.44,4.26-15.51,8.19-22.64,12.31-5.21,3.34-11.53,6.51-16.73,8.61-7.56,3.75-13.7,9.16-19.14,15.82-5.92,7.35-13.97,12.88-20.95,19.17-7.36,6.43-13.73,13.89-20.15,21.22-3.05,3.31-8.26,9.88-7.37,12.17,1.44,5.04,15.61,2.47,20.77,1.72l.19-.03ZM298.77,255.28c2.48-2.53-2.1-6.57-4.62-5.15-3.11,2.19,1.9,7.26,4.5,5.26l.12-.11ZM553.05,295.11c6.9-2.56,37.45-11.24,32.7-21.15-3.83-8.82-7.05-15.04-17.71-16.44-12.31-1.67-29.87,1.93-40.54,7.38-5.75,3.22-10.06,8.42-12.58,14.5-2.96,7.19-5.65,18.87,2.8,23.03,10.05,3.8,25.25-3.86,35.16-7.26l.18-.06ZM595.68,261.57c1.59-1.06-.7-3.04-2-2.19-1.52.94.61,2.98,1.84,2.27l.15-.08ZM200.3,280.07c1.92-.48,3.71-3.63,1.91-5.12-1.09-.66-3.66.78-3.95,2.54-.32,1.25.23,3.04,1.86,2.63l.18-.05ZM304.02,311.95c2.14-3.95-3.41-7.55-5.36-3.02-1.24,3.23,3.31,6.37,5.26,3.19l.1-.16ZM391.39,312.74c1.99-1.03-.17-3.61-1.8-2.52-1.62.96.18,3.19,1.64,2.59l.16-.07ZM398.98,316.84c.26-1.23-1.06-2.01-2.13-1.54-1.21.42-1.97,2.11-1.41,2.94.98,1.36,3.21.18,3.5-1.21l.04-.19ZM577.99,429.07c9.71-.44,21.31,3.04,30.68,2.21,6.61-.14,14.98-2.83,22.31-4.35,11.66-2.09,24.35-3.59,34.8-8.55,8.43-3.56,17.33-8.14,19.31-17.79,1.23-5.4.18-11.54.02-17.3-.63-9.7.11-20-5.38-28.18-3.81-5.55-11.19-9.25-17.64-12.65-8.27-4.26-16.7-8.34-25.17-12.19-18.6-7.59-39.23-10.11-59.21-8.5-17.93,1.92-34.82,7.33-52,12.32-6.8,1.86-14.37,3.23-20.21,7.17-6.39,3.95-9.25,12.65-10.81,20.05-1.29,5.31-2.73,10.75-3.89,15.93-1.41,6.23-3.09,12.23-4.22,18.43-.7,3.76-.3,7.62-.26,11.23-.46,6.55-.06,14.41,7.36,16.7,6.17,2.18,12.95,1.75,19.39,1.98,7.35.35,14.58.42,21.98.37,4.98.1,10.01.46,15.02,1.5,4.26.75,10.17,2.37,13.74,2.62,4.74.45,9.18-1,14.02-1h.15ZM283.54,364.26c-.91,1.35-.84,4.31-.57,6.02.11.77.57,2.38,1.22,1.13.8-1.72.88-4.77.18-6.61-.17-.37-.39-.82-.77-.6l-.07.06ZM695.67,380.3c2.62.43,4.94-3.47,2.98-5.48-2.69-2.25-6.88,3.97-3.14,5.45l.17.04ZM283.33,377.77c.83-3.38-2.94-2.96-3.12-.09-.18,2.48,2.39,2.09,3.05.29l.07-.21ZM287.03,385.59c.22-2.04-3.86-3.94-4.5-1.47-.41,2.32,3.95,4.1,4.49,1.64l.02-.17ZM291.08,392.08c1.86-1.7,2.29-6.17,2.1-8.64-.08-.28-.08-.51-.39-.44-1.85,1.64-2.66,5.89-2.64,7.94,0,.53.12,1.56.85,1.2l.08-.05ZM693.7,392.73c.36-2.84-1.14-6.21-4.1-6.43-3.53.08-4.67,5.93-3.4,9.33,2.43,5.58,7.01,1.97,7.48-2.68l.03-.23ZM702.47,399.41c1.43-1.64.41-3.75-1.73-3.4-1.49.23-3.04,2.25-2.76,3.47.49,2.08,3.31,1.5,4.35.09l.14-.17ZM689.76,407.54c2.03-.02,4.87-1.13,6.06-2.8,1.11-1.31.76-3.12-.98-3.43-1.66-.44-4.76.39-6.56,1.84-2.54,1.87-2.39,4.44,1.24,4.39h.23ZM296.29,430.66c.55-1.8.6-4.7-.43-6.33-.3-.42-.64-.55-.99-.21-1.22,1.56-1.19,4.64-.72,6.61.42,1.73,1.45,2.06,2.08.14l.06-.2ZM636.48,431.28c1.83-.72,4.08-2.44,4.42-4.25.28-1.58-1.39-2.2-2.77-2.01-4.86.22-10.5,9.1-1.87,6.35l.23-.09ZM681.74,430.58c1.86,2.39,7.44.19,6.31-3.03-1.61-3.11-7.7-.33-6.39,2.9l.08.14ZM263.98,472.1c1.5-2.15,2.6-6.74,1.37-9.18-1.08-1.48-2.78.37-3.33,1.52-1.44,1.78-2.05,12,1.84,7.81l.12-.15ZM251.02,498.25c-.44-2.74-4.33.57-3.55,2.34,1.07,1.59,3.55-.82,3.54-2.16v-.18ZM245.13,532.43c6.94.73,8.66-15.2,7.34-20.45-.88-4.19-3.17-12.1-8.37-7.62-4.6,3.86-7.22,10.79-6.02,16.24.6,4.78,2.65,9.85,6.98,11.82l.08.02ZM240.47,512.5c1.11-1.23,2.05-3.19,2.3-4.89.47-2.88-.28-4.64-1.82-3.67-2.64,1.75-3.81,5.56-3.58,8.56.23,2.42,1.75,1.49,2.95.16l.14-.16ZM237.07,526.41c.7-2.42-2-3.33-2.73-.78-.72,2.54,1.84,3.41,2.67,1.01l.07-.23ZM251.09,538.52c-.16-1.77-1.25-3.61-2.87-4.19-3.61-1.03-3.99,4.53-2.25,6.98,2.44,3.28,5.48,1.09,5.14-2.55l-.02-.23ZM262.05,545.72c4.92-.23,5.57-8.25,2.11-10.87-2.17-1.63-5.44-.27-6.32,2.13-1.38,3.18.17,8.52,4.05,8.74h.16ZM247.55,549.78c.36-1.76-1.79-5.3-3.26-3.84-.69.95-.53,2.44-.14,3.57.84,2.49,3.29,2.58,3.39.45l.02-.19ZM239.73,551.15c-1.15-1.43-3.31,1.11-2.24,2.3,1.09,1.07,2.87-1.07,2.31-2.17l-.08-.13ZM255.6,579.17c-.9-.86-3.35.2-2.05,1.43.86,1.01,3.29-.11,2.18-1.33l-.13-.11ZM247.65,595.66c.67-.45.2-1.15-.37-1.48-1.28-.88-3.96-.86-4.7-.21-.55.43-.22,1.01.33,1.38,1.15.84,3.39,1.03,4.61.39l.13-.08ZM98.43,596.21c-2-1.2-4.27,3.58-2.05,4.93,2.38.93,3.91-3.48,2.17-4.85l-.12-.09ZM80.67,601.36c1.1-2.1-2.79-3.03-4.19-1.46-1.29,1.07-.64,2.77,1,2.91,1.08.16,2.53-.43,3.1-1.31l.09-.14ZM81.97,614.18c6.22,2.03,6.66-9.27,2.26-11.42-1.14-.57-2.5.11-3.17,1.05-2.08,2.55-1.78,8.81.79,10.3l.12.07ZM242.53,614.31c-1.21-1.04-3.67-.43-3.76,1.32-.04,1.04,1.51,2.1,2.79,1.68,1.24-.31,2.29-1.9,1.1-2.89l-.13-.11ZM219.09,623.9c-3.19,0-3.83,6.59-.18,6.32,2.6-.43,3.27-5.65.34-6.3h-.16ZM225.24,634.1c-2.08-.64-3.3,3.66-1.14,4.57,2.29.62,3.06-3.59,1.28-4.51l-.14-.06ZM114.34,635.3c-1.73-1.87-3.99,2.01-3.15,3.59,1.48,2.42,4.22-1.94,3.23-3.46l-.08-.13ZM144.4,694.58c-.28-1.57-1.89-2.17-2.86-.85-.79.93-1.11,2.82-.6,3.97.36,1.09,1.63,1.66,2.51.75.86-.79,1.23-2.49.99-3.66l-.04-.21Z"/><path d="M427.78,279.27c-15.47,2.43-35.13-12.02-36.31-27.98-.47-7.16,7.19-11.27,12.95-14.25,9.11-4.75,18.85-9.23,28.95-11.78,9.61-2.53,19.09.47,24.08,9.31,3.82,6.86,6.54,15.81,1.15,22.45-1.73,2.41-3.9,4.56-6.06,6.62-6.86,7-14.73,14.56-24.59,15.61l-.18.03ZM424.88,269.48c14.03,3.07,17.64-13.39,5.06-18.57-8.27-3.89-24.07-1.21-17.08,10.11,2.59,4.08,7.27,7.3,11.81,8.4l.2.05ZM412.95,263.09c-2.25-1.04-4.7-.75-3.43,1.93,1.36,2.66,4.11,4.82,6.77,6.25,3.62,1.76,6.48,2.6,7.84,1.69.96-2.5-8.85-9.15-10.99-9.8l-.18-.08Z"/><path d="M388.61,423.29c-8.39,3.43-18.15,2.8-26.86.85-12.47-2.64-14.46-12.1-9.51-22.73,2.6-6.28,6.13-12.61,10.88-17.69,8.1-8.96,20.38-11.48,31.5-8.3,5.37,1.6,10.71,4.26,13.8,9.17,10.73,15.44-5.12,33.18-19.63,38.63l-.17.07ZM392.57,408.14c1.72-11.43-13.56-17.47-19.14-6.57-3.26,5.68-.06,14.17,6.91,15.08,5.4,1.1,11.26-3.01,12.2-8.33l.04-.17ZM374.51,421.45c.07-3.07-4.6-7.4-7.53-9.32-2.86-2.11-9.04-4.78-8.69-1.43.88,4.91,5.76,8.57,10.09,10.54,1.96.81,5.14,2.03,6.11.3l.02-.08ZM385.98,418.57c-.06-1.88-4.1-1.69-4.73-.22-.83,2.37,4.48,2.37,4.71.38l.02-.16Z"/><path d="M201.15,619.93c-2.31-.16-2.98-3.45-2.96-5.84.02-4.18,1.49-8.76,4.4-11.77,9-7.68,3.15,17.36-1.35,17.6h-.09Z"/><path d="M263.09,428.94c-1.44,1.91-3.78,3.88-4.28,0-.46-2.74-.31-5.84,1.29-8.22,6.57-8.59,6.21,4.83,3.11,8.05l-.13.18Z"/><path d="M208.9,591.16c-2.56,3.48-5.07,1.21-3.41-2.25,2.75-5.32,6.28-2.03,3.55,2.06l-.13.18Z"/><path d="M243.68,438.05c.16,1.36-1.26,2.17-2.44,1.75-1.36-.35-2.56-2.37-2.22-3.69.96-2.79,4.5-.27,4.65,1.76l.02.19Z"/><path d="M260.83,441.95c-.93,1.25-2.23-.31-2.65-1.27-.91-1.73,0-4.18.98-3.99,1.71.71,2.72,3.57,1.75,5.13l-.08.12Z"/><path d="M216.92,571.57c-1.3,2.54-4.38.24-3.37-2.11,1.29-3.62,4.5-.72,3.45,1.92l-.08.19Z"/><path d="M220.17,566.2c-1.03.64-4.75,1.92-3.89-.42.82-1.75,3.65-3.58,5.39-3.23,1.7.83-.1,2.85-1.27,3.52l-.22.13Z"/><path d="M222.98,530.03c.28,4.44-3.17,1.4-3.57-.71-.54-1.67.1-5.53,2.12-3.28.92.98,1.34,2.43,1.43,3.75v.24Z"/><path d="M530.82,87.12c.23,1.15-.52,2.96-1.45,3.73-.34.3-.81.52-1.04.05-.46-1.15.36-3.27,1.31-4.04.37-.31.95-.46,1.14.12l.04.14Z"/><path d="M268.12,410.51c-1.26,1.6-1.28-.55-1.09-1.49.02-1.02,1.17-4.31,2.05-3.77.61,1.42-.03,3.85-.84,5.1l-.11.16Z"/><path d="M191.62,659.6c-.73.7-2.05.56-2.73-.14-.94-.94.69-2.19,2.03-2.08,1.16.04,1.66,1.24.84,2.09l-.14.14Z"/><path d="M280.17,515.13c-1.2.18-.97-2.49-.71-3.32.43-1.25,1.54-2.01,1.94-1.36.65,1.4.32,3.88-1.1,4.63l-.13.05Z"/><path d="M247.73,421.78c-1.46-.4-1.08-3.48.4-3.69,1.86-.21,1.49,3.52-.24,3.69h-.15Z"/><path d="M778.37,174.35c-.28,1.17-4.46,1.71-4.19.08.57-1.28,4.21-1.9,4.22-.21l-.04.13Z"/><path d="M285.06,297.2c-.52.14-.72-.41-.78-.86-.26-1.92.83-6.32,3.21-7.34.81.02.62,1.03.61,1.85-.14,2.04-1.19,5.33-2.93,6.32l-.1.03Z"/></g></svg>