<?xml version="1.0" encoding="UTF-8"?><svg id="Layer_2" xmlns="http://www.w3.org/2000/svg" fill="currentColor" viewBox="0 0 779.26 756.75"><g id="Layer_1-2"><path d="M42.51,653.2c-.78,3.55-.57,7.68-.16,11.36.11,1.03,2.47,2.41,1.8,3.86l-1.79,3.85c.32.85.66,2.19.78,3.32l.19,1.86c.1.97,3.33-.37,5.19.77,3.52-.76,7.3-.81,10.6.56,2.18-1.88,2.95-.84,8.51-1.19l6.12-.38,8.25-.65c4.45-.35,1.18,2.38,7.13,1.09,1.74,1.71,1.33,5.19-.94,6.63-1.56.99-1.31,2.65-1.37,4.27-.07,1.8-2.82,2.72-3.94,3.87l-4.18,4.31-1.7-.85c-.37-.18-1.16.97-1.57,1.11-4.16,1.47-11.59,3.31-15.78,3.2-1.84-.7-2.6-1.07-4.52-.56l-6.12,1.64-6.27,1.61-1.43-1.39c-.31-.3-1.13.97-1.49,1.25-4.13,3.23-4.99,2.92-8.72,6.17-.77.49-2.55-.64-3.61-.95-1.04-.3-2.94-.16-4.1-.36l-6.25-1.08c-1.39-.24-2.2-.41-3.53-.11l-4.72,1.06c-1.17.26-3.37-1.66-4.16-2.27-.68.25-1.99.68-2.63.59-1.56-.22-2.4-3.96-2.01-5.15.75-2.31,4.83-1.53,6.37-5.54l2.46-6.43c.18-.48.08-2.07.27-2.51.85-1.92,2.22-4.83,2.75-6.95,1.54-6.19,2.8-4.46,3.28-7.11.3-1.64-1.78.13-4.72-3.85-.32-.43-1.37-1.04-1.72-1.41-.41-.43.17-1.91.58-2.55.86-1.32,3.75-.43,4.23.66.11.24-.3,1.25-.09,1.37l1.06.6c.29.16.94-1.13.8-1.46l-1.04-2.28c1.23-1.03,1.79-2.72,2.1-4.16,4.33-1.54,4.66-3.66,4.38-8.13-.1-1.59-4.44,1.89-5.58.69-.32-4.31.36-8.61-.48-12.78-.24-1.17-1.64-2.33-1.6-3.98l.27-11.41c.03-1.36-2.44-3.46-1.16-5.14.56-.74,2.09-1.66,2.04-2.49-.05-.99-.58-2.7-.87-3.65.93-2.54,1.25-5.41,0-8.12-.82-1.8.77-3.4,1.45-5.11s-.18-4.47.41-6.2c.92-2.71,1.68-5.31-.24-7.87l1.23-2.85-1.73-.69c-1.52-.6,1.15-4.82.83-7.62.68-1.73,3.44-3.42,4.38-5.16.99-1.85,1.73-2.91,3.65-3.78,6.78-3.05,4.37-4.48,7.69-7.54,6.32-.33,6.75-3.22,12.33-7.95l3.7-3.14c.98-.83,4.04-.5,4.96-1.51,3.59-3.92,4.66-.59,7.12-2.39.59-.43.68-1.97.87-3.03.36-2.05,3.56,1.38,3.76,1.31.35-.14,1.02-.95,1.16-1.35l1.39-4.14c3.43.48,5.69-.2,8.43-1.4l4.58.39.35.61c-1.77.53-2.48,3.95-1.22,4.73l4.95,1.45c.46.14,1.14-1.33.83-1.66l-1.6-1.68c-.55-.58-1.18-2.05-1.66-3.04.88-1.83,2.8-3.32,4.89-3.53l2.84,2.02c1.51,1.08,2.68,1.92,4.05,3.42.86.94,2.86.19,4.02-.25.59,1.32,1.59,2.78,3.35,3.23l1.87,2.36,3.88,2.8c1.17.84,2.34,1.47,3.28,2.61,3.49,4.27-.66,5.3,4.12,8.48,1,1.38,2.1,3.63,2.99,5.25l5.34-.39-.15,2.66c.31,1.11.56,2.49.69,3.4l3.2,2.38c1.79.13,4.78-.41,5.32,2.24l.66,3.27c3.39,3,.59,4.29,2.21,9.87,1.38-.53,2.27-1.28,3.12-2.21.21,1.69,4.23,6.21,4.85,6.6,3.48,2.19-.19,3.84.71,7.17.24.88,1.8,1.73,2.83,2.31l3.77,2.1c4.98,5.15,2.13,5.14,8.09,12.3l1.97,2.36c.45,3.48,2.37,6.24,5.91,7.24l.36,2.37c1.51,1,1.91,2.31,2.4,4.03.67,2.37,3.83,3.46,5.16,5.05l2.14,2.56.29,3.99c1.04.67,1.79,2.28,2.51,3.04,1.13,1.19,2.7,1.47,2.91,3.46.05.51.37,1.77.85,1.86l2.7.51-.02,3.63c0,.44.34,1.64.74,1.75l1.82.47c.85.22,1.33,2.07,1.5,3.29,0-.01,3.49,8.04,4.59,9.16,1.95-1.27,2.79-2.52,3.86-4.31,3.78-6.34,2.2-7.36,2.91-9.12l1.78-4.38.98-3.42,1.77-5.78c.08-.27.03-.98,0-1.21-.23-1.75-1.47,1.89-6.94,1.71-2.22-.07-2.46,3.35-3.5,4.44-.82.86-2.04,1.82-2.48,2.64-.93,1.72-1.52,2.76-2.91,3.9l-.28-5.87c-.02-.48.41-1.67.8-1.87,1.81-.94,3.05,1.5,5.38-3.77l-1.04-3.09c.34-.27,1.84-.59,2.07-.19l1.02,1.74c.21.37.65,1.04.86,1.34.33.47,4.06-2.59,4.56-3.71l-2.65-2.14,1.93-4.1c.22-.48.04-2.01-.21-2.43-.85-1.43-4.36-.24-4.54-3.17-.05-.85.97-2.44,1.5-2.67.5,3.14,6.15,2.49,5.11,9.37-.04.23.21.78.38.76,3.36-.33,5.61-9.71,5.98-4.87l.17,2.18c.04.55,1.75.5,2.43.16,1.12-.56-.44-2.59-1.38-3.01.36-.93.71-2.02.85-3.05l.62-4.82c.25-1.96.34-3.83,1.61-5.39,2.61-3.22,1.81-3.64,3.47-8.77,1.5-4.63,2.59-6.16,3.93-11.08.52-1.91.4-4.42,1.38-6.44,1.41-2.91,2.4-5.8,3.43-8.79l2.08-6.02c1.52-4.39,5.91-10.31,4.09-14.08l-2.43,2.01c-.57.47-2.85-.37-2.75-1.09l1.25-5.65c.15-.34,1.39-.05,1.45.31l.27,1.61c.04.21.31.78.43,1.03s.83-.04.91-.35c.37-1.49,1.47-2.83,2.61-4.22.77-.95-1.3-3.03-1.98-3.97-1.27-1.77.3-4.04,1.52-5.47.94-1.1,2.82-2.26,3.64-.88.56.94,1.16,1.9,1.8,2.58.55.58,2.36-.15,2.96-.74s.9-2.58.09-2.95c-.89-.4-2.44-.86-2.88-1.47s-.66-2.28-.62-3.08l.1-1.64c.02-.36-1.24-.76-1.48-.48l-1.1,1.31c-2.04-.6,2.44-5.46.04-5.75-3.7-.45-1.62,3.85-6.32,6.79l.51,1.45c.42,1.21-3.21,1.02-2.73,4.92.06.48-.03,1.67-.32,2.04-.35.45-1.43.59-2.57.83l-.45,4.98c-.85.88-2,1.97-2.36,2.8-.42.96.25,2.29.73,4.17l-3.63-.51c-.31-1.63-1.21-4.82.05-6.15,3.78-3.96,1.66-4.2,4-11.2.59-1.76,1.14-2.85,1.12-4.79,4.35-2.12,5.22,1.54,6.76-2.02.51-1.18,1.44-2.22,2.4-3.19.72-.72.04-2.91-.32-3.95l1.75-3.47-3.06-2.83c.59-.27,1.64.07,2.56.63,3.75-3.76,2.33-6.77.69-11.31,2.16-3.95,3.24-.02,5.18-7.89.56-2.26.04-5.58,2.72-6.68.57-.23,1.82.71,1.86,1.31.05.75.03,2.14-.47,2.49-.73.51-1.31.88-1.51,1.31s.02,1.91.48,2.02c.71.17,2.85.12,3-.54l.81-3.35c.75-1.57,1.38-3.24,1.92-4.9.26-.76,2.07-1.96,1.72-2.67l-.85-1.71c-.18-.36,1.04-.94,1.44-.86,1.4.29,1.32,2.84,3.02,2.81.66,0,1.74-.51,2.16-.96,1.78-1.9-3.38-3.64.09-8.49l.3-3.08c2.04-.21,2.99-1.57,2.89-3.54-.37-7.34-1.74-2-2.4-9.92-.84-.6-3.41.89-3.25,1.94,2.48,5.19-3.67,4.06-.54,9.3,1.45,2.44-1.35,2.79-1.43,6.74-3.26.46-1.55-1.78-4-5.71-2.09-3.36,1.53-6.9,2.62-10.95.73-2.69,1.31-5.21,2.2-7.67.53-1.45,1.32-2.81,1.74-4.45.21-.8,2.17-1.9,2.48-1.19l1.5,3.42-2.56,2.7c-.67.7-.48,2.75.5,3.08.81.27,2.77-.08,2.91-.61-.37-.81-.72-1.3-.51-1.48l1.2-.98c1.12,2.03.38,4.67-.65,6.57.12-.22.67,8.43,4.18-8.29.39-1.88-.44-3.35-1.88-4.59-.6-.52.19-2.1.52-2.81l1.68-3.71,1.31.55c.52.22-.17,3.54.63,4.11.45.32,1.52.62,2.32.89l1.99-3.58c.91-1.65-.12-4.39.27-6.57.42-2.3,2.51-2.63,1.74-4.15-.16-.31-1.4-.48-1.63-.23-1.16,1.27-2.1,4.01-2.42,5.78-4.15-4.78-1.74-1.98-1.5-8.04.04-1.13.73-1.88,1.33-2.93l2.81-4.92c.41-.62,2.78-.01,2.53-.48l-.59-1.11c-.31-.59-.08-2.23-.3-2.89l-1.13-3.42c-.38-1.16-.94-2.31-1.47-3.57.82-2.39,4.88-1.42,4.78-2.72l-.18-2.16,2.37-3.62-.81-5.36c-.08-.54-1.79-1.01-2.06-.59l-1.22,1.88c-.35.54-.75,1.12-1.1,1.32-.43.25-1.39-1.06-1.2-1.61,2.43-6.91,5.16-3.08,5.92-6.37l-2.51-.71.82-5.48c1.84-.81.73,2.8,1.37,3.75.33.48,1.42,1.01,2,1.46,1.15.9-1.91,3.07,1.23,4.64l1.41-4.7c.08-.28-.13-1.65-.39-1.6l-1.41.25.16-.7,2.07-.19c.43-.04.7-1.26.75-1.69l.21-1.81c.08-.72.17-1.58.13-2.11-.05-.61-1.52-1.89-1.92-1.46l-1.55,1.8c-.37.43-2.25.03-2.37-.38l-.25-5.12c.65-1.64,1.64-3.45,1.89-5.32.23-1.7,2.73-2.78,3.09-4.24l1.86-7.46.89-2.66c.07-.21.24-.64.4-.59l1.21.42,2.71.93.92,1.49c.2.32,1.5-.19,1.68-.6,2.09-4.58-.7-6.66,2.22-11.08,1.59-2.4,2.56-6.77.23-7.88-.34-.16-.95.77-1.24,1.1-1.49,1.73-1.66,3.55-.07,5.19l.61.63c.82.85-.82-.69-2.59,3.71-.55,1.37-1.33,3.26-3.12,3.14-.67-.04-1.67-1.57-1.54-2.21.17-.82.78-1.8,1.36-2.88.55-1.01,1.17-3.31,1.42-4.48-.34-1.83-2.77-1.53-4.11-1.06l-2.67.94c-6.86,3.75-6.21-1.34-9.99,8.93l-.9,2.45-1.6.2-.07-4.45c1.19-.77,2.76-1.89,2.57-2.81-3-2.44-2.29,1.01-6.3,1.21-1.38.07-3.07-3.87-3.47-1.5-.22,1.3-1.23,1.53-2.54,1.76-1.96.35-4.24,1.64-6.15,1.84-2.21.23-3.58.18-5.22,1.86l-5.65.44c-1.82,1.39-3.46,2.52-5.8,1.19l.3-3.63c-1.45.13-3.26.19-4.65.52-5.72,1.35-3.2-.62-6.53-.27-1.75.18.4,3.49-2.06,5.82-.9.85-2.77.8-3.92,1.26-1.99.8-3.31,1.51-5.36,1.39-1.18-.07-3.47,1.28-4.59,1.01-2.63-.64-4.73-.41-7.15.24l-3.39.91c-1.62.43-3.39.96-5.13,1.08l-7.49.53c-1.2.09-2.36.48-3.44.5l-7.11.11c-5.47.09-10.93-.11-16.47.31-2.82.21-6.22,2.08-8.97-.46-4.42,5.19-1.63-.71-12.17,2.06-7.88,2.07-6.21-.14-11.13,12.34-.8,2.03-4.44,2.99-4.54,6.58-.05,1.86-2.45,4.32-2.88,6.29-.94,4.31-2.47,7.81-5.14,11.19-4.73,6-.56,4.51-6.45,9.88-.41,2.54.21,5.99-1.11,7.98-1.52,2.28-3.1,3.73-2.05,6.79.57,1.68-.39,3.8-.89,5.51-2.3,7.74-3.52,4.31-2.66,7.12l-3.72,3.15c-1.47.28-4.41.38-5.85-.02-8.98-2.52-3.71,1.8-9.75-.44-1.22.11-2.74,1.5-4.07.44l1.13-1.83c1.76-2.86,0-1.07-5.78-2.58-.8-.21-2.29-.47-2.53-1.07s.29-1.93.67-2.5l.83-1.25c.74-1.11-4.01.43-6.97-2.47-1.65-1.62-.12-4.8.16-6.79.26-1.85.51-2.71,1.72-3.96,2.51-2.59,1.23-3.61,4.32-7.02,2.94-5.33,2.35-5.71,5.23-11.22l.37-.71c.09-.17.79.28.88.46l1.01,2.07c.23.48,1.86-.05,1.97-.61l.87-4.31c2.03-1.65,2.84-3.76,3.32-6.31.23-1.2.84-2.47.54-3.66-.79-3.08,1.56-2.29,2.2-4.47.51-1.72-2.33-1.08-1.45-3.47,1.17-3.19,2.85-5.43,5.54-7.5,3.32-2.55,4.82-6.66,7.35-9.88l3.64-4.64,2.24-2.86c1.19-1.53,1.92-2.82,2.61-4.92.93-.82,2.38-1.73,4-2.62l-1.07,3.62.53.64c1.63-.73,4.05-1.13,5.01-2.33,1.19-1.49-.28-4.62-2.25-4.79.53-.27.38-2.53.94-3.17l5-5.76c1.79-2.06,3.56-4.23,5.44-6.07,3.65-3.58,8.16-6.53,9.84-11.57,1.65,0,2.34-2.08,3.38-2.53,6.53-2.83,6.19-1.71,10.98-3.91,2.19-1.01,4.54-2.67,3.78-5.47l-2.18-2.07c-.14-.13-.59-.72-.41-.75l.91-.18,5.68-1.2c.62-.13.04-1.9,0-2.51-.08-1.35,2.33-2.21,3.89-2.44.99-.25,1.42-2.76,1.56-3.81,1.73-.02,2.96-.61,3.86-1.95l2.78-4.15c.49-.74,2.69-.39,3.74-.31,1.04-.79,2.9-2.26,3.54-3.24,1.37-2.18,2.58-2.51,5.15-2.89,1.23-.18,2.95-.56,4.26-.66,2.66-.21,3.11-2.66,3.73-4.65l1.32-4.26c.16-.53.69-1.55,1.09-1.82s1.61.5,2.12.38c1.04-.25,2.65-.9,3.61-.02,2.45,2.23-.26-3.95,7.53-6.68.29-1.7,1.15-2.64,2.49-3.43,2.33-1.38,3.99-2.83,7.02-2.6,1.85.14,4.27.14,6.01-.16,2.48-.43,3.07-3.51,2.64-5.45,1.11-.15,2.48-.18,3.05-.59.65-.47.7-2.38.82-3.54,1.53-.55,3.76-.05,5.71.35,2.52-.65.41-6.12,3.07-4.22,1.17.83,3.08,1.72,4.69,1.72l3.63-6.01h.97c0,1.5.94,3.27,2.04,2.65,1.82-1.03,1.89-3.26,1.99-5.48l4.07-.53c.9-1.35,2.12-2.87,3.32-3.33l6.71,2.01c1.03.31,3.11-.76,3.76-1.54-1.52-2.2.96-5.26,2.07-5.71s3.13,1.37,3.06,2.45c-.08,1.29-.1,2.65,1.01,3.38.97.64,1.84.73,3.23.14,3.39-1.45,1.14-3.43,2.22-5.63.63-1.29.78-2.59-.16-4.41,2.67-.17,4.91,5.65,7.34,2.12l1.78-2.59c2.44,1.86,2.5,3.55,3.99,4.07,1.98.69,3.21-6.99,7.74-6.23,6.51,1.09-.14-1.48,7.12.43,1.95.51.06-5.51,1.42-3.67l.57.76c.59.8,1.54,3.16,3,1.89,5.16-4.47,1.98-1.88,6.87-2.38,1.38-.14.6-3.51,1.3-3.41l.74.11c4.48.64,3.39-.28,7.65-2.76.69-.4,2.15-1.89,2.86-1.42l1.7,4.71c.15.43,1.64.66,1.94.32l1.25-1.45c1.67-1.93,2.71-3.65,2.75-6.61l6.03,2.1c.49.17,2.08.03,2.44-.34s.37-1.09.56-2.49l5.47-.13c.42,2.47,2.49,4.38,3.97,3.53,2.26-1.29-.51-3.11,3.5-4.92.28-.13.97-.73,1.13-.99.2-.33-.29-1.01-.58-1.48l-.74-1.21c-.22-.36,1.36-1.12,1.69-.88.5.37,1.38,1.19,2,1.74l.76-2.44c.17-.54,1.81-.34,2.38-.44l2.98-.52c1.31.41,2.37.4,3.62-.05l3.32-1.19c3.01,2.51-1.38,4.54.8,6.14.76.56,1.87-.04,2.9-.54l3.72-1.8c.38-.18,1.69-.21,2.1-.16.49.05.48,1.16.67,2.05,1.3,1.42,3.5,2.63,5.39,3.73.53.96.85,3.57.24,4.55-3.62,5.77.94,6.72-6.22,9.43-2.1.8-3.72,1.26-5.96,1.69l-.96,2.35c-2,.33-3.24.82-4.76,1.63l-5.98,3.15c-4.83,2.55,1.92,4.2-1.43,9.22-.96,1.44-1.17,3.07-1.52,4.82l-1.07,5.36c-.32,1.59-1.66,3.97-2.22,5.62-5.67,1.84-1.16,3.53-7.03,13.02-.97,1.57-.76,5.44-2.49,6.62-2.75,1.88-4.13,3.93-5.56,6.72-.52,1.01-2.19.44-2.06,6.91.02,1.19-.68,3.29-.47,4.69.36,2.41-.98,3.87-3.17,4.66l-1.48,3.75c-.3.75.15,2.53.83,2.91.79.44,2.29,0,3.22-.4,2.62-1.1,4.77,1.5,5.37,4.09,1.62.58,3.64.56,5.58.03.45-1.13-3.89-4-2.92-4.14l3.52-.52,5.02-1.02c2.8-3.57,3.11,3.26,7.47-.31.89.69,1.56,2.33,1.82,3.73.16.85,2.7.98,2.92.2.38-1.37-.18-2.77-.79-4.18l5.29-1.36c.9,2.1,1.28,3.55,1.84,5.77,1.77.36,4.48.39,6.51.25l.26-2.25c.17-1.47-3.3.28-4.29-1.33-.34-.55-.65-1.65-.39-2.16,1.37-2.71,5.59.23,7.02.88,1.67-.81,4.85-1.75,5.99-.4.78.93,1.36,1.62,2.53,1.48,8.26-.99,7.94,4.44,10.32.44.54-.91,2.2-1.94,3-2.12l1.94,3.28c.36.61,2.2,0,3-.44,1.04-.57,6.25.37,5.87,4.33l3.42.04c1.45.02,3.15,1.65,4.33-.32-1.1-3.18-4.19-3.5-1.66-4.96l2.22-1.28,6.63,2.75c6.77,2.81,6.84-.38,9.21.27.55.15.63,1.49.82,2.2l.24.9c-.09-.35,2.86,0,3.98-4.99.3-1.34,3.66-1.68,4.25-.74l.71,3.07c2.76-1.01,5.02,1.52,6.83-.12,1.58-1.43.72-4.73,2.55-5.63,1.01-.5,2.49-.48,3.64-.21,2.53.6,4.9-.87,7.13-1.52,1.71-.49,3.24-.59,4.3-2.32.69-1.12,3.01-2.69,3.92-1.47.53.71.94,1.81,1.55,1.85,3.19.25,3.44-9.14,4.14-11.31l2.55-7.85.94-.03.76,2.29c.89.02,4.24-7.4,4.21-7.46l-2.22-4.87-3.09,2.82-2.87-1.67c-.48-.28-.91-1.64-.79-2.19.15-.67,1-1.34,1.92-1.83,6.09-3.27,3.02-5.97,6.35-8.18l2.11,1.16c.46.26,1.04-1.28,1.35-1.72,1.25-1.76,2.52-3.63,2.1-5.82-.76-3.97,2.7-1.35,2.64-4.74-.02-1.14-.7-1.5-1.87-2.06-.94-.45-2.58-2.35-2.51-3.38l.3-4.18c.07-.9.5-2.96.9-3.85l3.65-8.13c-.76-1.77-.64-3.45-.02-5.24.5-1.45-.2-5.85,2.03-7.09.19-.11,1.32.09,1.29.31l-.15,1.28c-.16,1.3.07,2.76.71,4.08.19.39,1.59.66,1.59.23,0-.58-.01-1.4-.04-1.98l-.05-1.05c-.03-.6-.52-2.07-1.1-2.47-2.84-1.94-2.39-7.2-.76-9.22,1.26-1.56-.25,4.64,2.4,4.3.57-.07,1.43-.25,1.81-.35s.38-1.15.41-1.69l.21-4c.05-1.04-1.97-2.04-2.69-2.91-.62.24-.72-6.05.14-5.05l.79.91c.52.59,1.5,1.52,2.15,1.58s1.8-1.44,1.72-2.14c-.51-4.92-2.09-1.43-2.51-9.87-.06-1.17.64-7.91,1.7-8.83l2.72,3.29c.11.13.03.97.08,1.15.04.16.23.24.31.09l.44-.81,2.76-4.99c.21-1.05.19-3.22.18-4.46v-1.13c0-.18-.42-.36-.54-.24l-.72.68c-2.22,2.1-6.23,1.09-5.4.49,3.63-2.61,2.64-6.79,3.47-11.03.35-1.81.07-4.25,1.12-5.7s1.29-2.37.24-3.95l1.53-4.02c.92-2.43.18-5.64.58-8.33,2.36.05,4.06-.81,4.75-2.52.21-.51.36-1.82-.02-2.1-.46-.34-1.52-.67-2.33-.93-.56-.18-.92-1.58-.82-2.28.41-2.82,3.21-1.06,3.01-5.03-.71-14.22,4.15-6.36,1.56-11.51,1.46-4.68.11-5.64,1.23-8.69.89-2.44.52-6.39-.3-8.36-.06-.15.14-1.22.11-1.35-.05-.19.01-.08.57.58l5.74-.08c.77-1.51.2-3.7.41-5.09l.95-6.42.67-2.69c.09-2.27.44-4.1,1.22-6.04.03-1.08-.14-3.31-.44-4.29-2.57-2.78-1.29-1.87-1.46-8.18-.02-.73-1.27-1.89-1.86-1.61-1.23.6-2.98,1.04-3.79.58-1.95-1.78.29-4.26.28-6.04-.01-1.48-1.18-2.62-.03-4.17,1.86-2.52-2.15-4.23-.12-11,.7-2.33,1.35-4.06,3.19-5.75l.91-3.66c.61-2.44,2.59-3.84,5.46-4.53,4.34-3.53,2.42-8.3,4.69-8.68,1.3-.22,2.83-.12,3.49-.76s.09-2.85.19-3.71c.98-1.02,3.06-2.4,3.53-3.8,1.18-3.48,4.25-3.86,6.86-5.32,2.28-1.27,4.03-4.17,6.5-5.17l2.57-1.04c2.86-1.16,2.45,2.16,7.41,1.36,1.97-.32,4.07.8,6.12,1.05.73.09,2.7-.5,3.04.29.55,1.3,1.39,2.62,2.86,3.5l1.71,3.32-2.17,5.77,2.5,2.17c1.59,1.38-.27,3.95.38,5.52,2.35,5.72,5.66,5.59,5.21,10.2.52.28,2.38.82,2.65,1.55l2.47,6.52c.72,1.91.36,4.06,2.61,5.28l.75,3.7c.74,3.64,1.9,6.29,5.53,8.76,1.12.76,1.37,3.45,2.16,4.37,2.56,2.67,6.16,6,6.96,9.66,1.51,6.92,3.78,5.62,3,8.36-.22.77-.35,1.86.08,1.95,6.13,1.23,2.56,2.23,5.51,2.51.54.05,1.23.13,1.25.38l.1,1.14c.01.12-.17,1.2-.11,1.31l2.86,5.85.41.85c.7,1.44,2.61,1.55,4.45,1.28l.79,4.04,2.37,3.11c.41.13.9.29.68.22l-.31,2.3,6.31,2.74c1.54.67,1.09,3.29,1.69,3.47l1.84.53,1.01,3.58c2.35,1.3,4.85,2.3,6.8,3.75,3.72,2.75,2.08-.07,8.99,3.09l.11,3.72c2.13,1.06,4.27,1.79,6.82,1.28.99.59,2.07,1.42,3.2,1.89,5.68,2.37.25,1.6,5.84,2.38,2.13.3-.64,3.67.21,4.62s3.38-.06,3.6-.44l.34-.61c.18-.32.44-.97.61-.82,1.88,1.67,5.77.39,6.33,2.6l1.18,4.7,2.08-.63c.62-.58,1.28-1.25,1.78-1.51s2.01.19,2.47.55l2.98,2.3c2.34-.26,4.41.31,5.56,2.65,1.11.35,3.25.27,4.46.53l10.73,2.27c1-.47,1.7-2.28,1.81-3.37l.44-4.43c.12-1.18-.16-2.17.26-3.47,1.18-3.65-1.72-2.02-.1-7.24,1.2-3.87-.44-7.28-1.36-10.94l-.87-3.5c-.98-3.92-2.4-7.65-4.21-11.38-2.02-4.15-6.55.37-10.94-3.79-3.78-3.58-6.75.7-8.49-.94s.01-2.35,1.37-5.38c.65-1.44-3.28-.27-4.05-1.09-1.72-1.83,5.2-3.58,3.36-7.33l-.6-1.22c-.55-1.12-6.09,1.22-8.94-.75-.59-.41-.89-2.12-1.21-2.87-.99-2.3-3.8-.1-5.11.11-4.31-2.82-5.3,3.51-9.49.28-3.02,2.05-4.37-.06-8.2,2l-1.35.72-.57-2.06c1.66-.9,4.25-2.22,3.57-4.29-.19-.59-2.12-.11-2.5.39l-1.01,1.33c-.33.43-1.39-.99-1.12-1.44,1.32-2.23,1.73-4.46.09-6.71.65-1.39,1.71-2.92,2.77-4.08l-.25-2.38c1.21-1.64,3.21-2.89,5.11-4.25s3.33-4.43,5.26-5.55c2.44-1.42,3.82-2.69,5.55-4.78.9-1.09,2.24-2.23,3.11-3.47,4.34-6.2,1.08-4.79,3.43-7.05l1.97-1.89,4.84-1.95c3.28-1.32,1.91,1.19,3.88.07,3.21-1.8,3.71.23,4.01.25l4.36.19c.1,0,.72-.42.8-.49l.64-.52c.18-.15.63.42.99.69s1.08-.15,1.86-.57c1.15-.62,3.11.16,4.28.2.95.02,2.9-.75,3.83-.22,2.07,1.17,4.08,1.15,6.06.16l3.77,2.5,6.31-.61c1.68-.16,4.85.01,6.52.16.5.04,1.05,1.39,1.4,1.78.77.86,2.15,2.35,3.16,3.33,4.5,4.39,1.62,2.78,4.82,4.8,1.76,1.1,2.73,2.59,4.03,4.16l2.16,2.62c.92,1.12-2.54,3.78,1.04,5.79l.58,5.12c2.99,3.54-5.46,10.78,1.35,11.38l.59,3.16c.67,3.62-.35-.29-.23,5.33l1.76-.54c-.34.1,1.32.79.65,1.83-1,1.56-2.27,4.66-1.86,6.63.48,2.32.34,4.51.94,6.56.38,1.33.73,2.66,1.01,4.28,2.5,14.54-.41,8.22-.32,20.23.01,1.63,1.63,3.96,1.52,5.55-.43,6.33,1.23,4.53-2.53,10.9-.45.75-.14,2.78-.27,3.61l-.95,6.3c-.72,4.75.86,9.22,1.63,9.1l2.37-.35c.84,2.4-.57,5.8.32,6.66l2.33,2.23c.17.16.89.48,1.05.33l.79-.76c.07-.07.45-.31.58-.38l.73-.4.68-.37c.33-.18,2.4,1.69,1.83,3.05-.32.76-1.08,1.84-1.75,2.58l-3.1-.78-3.76,4.74,3.25,3.81-1.19-.4c-1.05-.35-.49,1.77-4.3,1.75-1.97,0-4.43-.3-6.06.19-2.12.64-4.01.96-5.91.26-1.26-.47-4.35-1.02-5.26-.07l-3.34,3.44c-2.33-1.54-4.11-.58-5.66,1.22l-3.93.4c-.77.65-2.48,2.53-3.51,2.36-1.39-.23-3.13-.94-4.45-.91-6.01.13-4.27.44-9.48,3.04-6.99,3.49-6.06-1.42-9.17.85l-1.12-.87c-1.26-.99,2.98-2.49,2.38-4.81l-1.14-4.42c-3.26-2.67-6.59,1.75-7.97.04-3.42-4.26-.65-.41-5.38-4.11l-3.38-2.65-2.86-2.19c-1.97-1.51-3.63,1.4-4.85,2.22-1.91,1.28-2.92,3.21-2.05,5.16.13.3-.85,1-1.09.77l-1.11-1.06c-.31-.3,0-2.79-.43-2.67l-1.69.46c-.89.24-2.85.59-3.42.29-.78-4.04-2.68-3.55-2.01-4.66.39-.64.95-2.07.73-2.61-.33-.81-1.62-1.45-3.82-3.46-.54-.49-1.94.65-2.45,1.22-.24.26-1.14-.09-1.57-.16l-2.65-.44-2.41-1.92-3.58,1.03c-.8.23-1.17-1.9-1.66-2.4l-1.2-1.24c-.87-.9,2.65-1.01,2.07-4.46-.06-.36-.67-1.17-.99-1.31s-1.15.11-1.43.37l-2.27,2.08c-.28.25-.92.7-1.17.53l-1.29-.88c-.59-.4-1.56-.85-2.26-1.06-.6-.18-1.78.87-1.74,1.49l.08,1.36c.02.27-.31.87-.45.63-.17-.29-.53-1.09-.53-1.37l-.02-4.24-5.26-2.81c-1.91-6.29-3.85-3.91-8.29-5.69l-2.49,1.94-1.82-1.49c-.88-.31-2.02-1.03-2-1.77.03-.93,1.15-1.66,2.12-1.67,3.11-.05,1.52-.91,4.31-3.93.29-.32.95-1.31.67-1.58l-1.29-1.28c-.69-.69-1.86-.86-2.55-.43-1.04.64-1.24,1.77-1.4,3.05l-2,.55c-.3.08-1.08.74-1.25.49l-.82-1.18c-.91-1.31-1.96-2.1-3.86-3.04l1.35-4.1.62-1.47c.17-.41-.69-.97-1.24-1.23l-4.06-1.91c-.43.67-.82,1.88-.87,2.5l-.28,3.55c-.07.86-.81,2.58-1.56,2.91-1.5.66-.79-4.22-3.56-5.28-4.9-1.87-3.23-4.58-6.9-2.82-.41-.26-1.11-.87-1.48-.77-.45.12-1.33.56-1.83.89l-1.36.87c-.31.2-.7-.77-.93-1.35l1.34-3.29-2.4-4.72-4.57-2.88-.12-1.83c-2.6-1.6-4.69-3.51-6.87-5.6-.61-.59-2.19-.69-2.35-2-.17-1.4-2.16-2.01-2.8-2.88-2.85-3.89-4.03-5.31-7.68-8.63l-3.39-3.08c.76-2.92-.95-4.82-2.78-6.75-1.13-1.2-1.96-3.58-4.11-2.71-.5.56-1.57,1.8-2.07,2.34-.57.62-.58-.02-3.02-.34-1.92-.25-.42,7.44-.24,8.55l.6,3.6c1.47,3.39.37,1.49-.39,7.4-.03.25-.71.35-1.4.48l-.58.88c2.14,2.67,1.25,5.83.04,8.48l-2.03,4.44c1.63,1.58.56,2.53-.26,3.98-1.9,3.36,1.06,8.87-4.41,8.91-.89-2.56-3-4.78-5.35-4.78-1.59,0-2.68.45-3.66,2.01-.55.87-.06,1.96.51,2.94,1.47,2.51,2.43,6.16,5.22,7.57,2.47,1.25,4.24,2.83,4.38,5.38.04.78.74,2.46.26,3.03-1.33,1.56-2.04,3.47-1.65,5.71l-1.31,3.53c-.65,1.75-.47,3.21.11,5.01l-1.77,5.62c-.6,1.92-1.43,3.17-3.74,2.75-1.19,2.3,1.22.45,1,4.94-.1,2-.21,3.56-.82,5.09-1.92,4.82.94.97-3.23,7.4-.45.7-.86,1.88-.44,2.29l.68.67c.19.19.45.84.36,1.1-.76,2.23-2.3-.45-4.15,3.92-.96,2.27-1.06,4.28.66,6.49l-2.56,1.12c-.62.27-.85,1.97-.81,2.86l3.63,1.61,1.22.56c.37.17.12,1.66-.2,1.94-5.05,4.5-.48,2.99-1.82,10.16l-.99,5.33c-.43,2.29-1.94,4.6-1.85,7.08.19,5.41-6.95,1.45-5.2,13.94.15,1.05.31,2.07,1.22,1.99.7-.06,1.37-.83,2.09-1.6,2.91-3.1,5.46-1.47,11.02-4.84,1.03-.62,2.59-.55,3.76-.76l5.06-.91,6.68-1.24,4.97-.74c1.58-2.13,5.66-.02,8.67-1.16,2-.75,3.08-1.06,4.95-.11,4.03,2.03,5.66-1.62,7.04-.53,3.58,2.8,3.98-1.39,11.4,0,.67,1.8,2.01,2.54,3.76,2.67,3.71.28,2.12,1.82,6.97,5.05,1.79,1.19,2.14-1.79,3.9-.76.43.25,1.77.84,1.98.52.35-.55.63-1.88.74-2.66,3.14.02,1.71,3.02,3.31,5.79.8,1.39,4.12-1.48,5.27-.4l2.84,2.64c2.49.1,5.16-.06,7.53.34,6.96,1.19,6.4.23,7.45,2.46.49,1.03,2.58,1.11,3.63,1.65,1.9.97,3.49,2.37,5.78,2.71,2.79.42,1.09,1.2,3.6,5.58.51.9.93,2.79.15,3.23-3.49,1.95-.7,1.02-4.04,6.71l-1.94,3.31c-1.01,1.73-1.57,3.28-3.4,4.37l-2.38,1.42c-2.28,1.36-1.97,2.54-5.22,4.76-2.23.34-6.65,3.65-5.45,5.46.8,1.2,1.88,2.72,2.74,3.75.44.53,2.21.1,2.63-.28l1.37.46c.72.24,1.52-.71,1.65-.58l.99,1.06c.58.61,2.54.51,3.44.8,2.5.8,7.12,1.76,9.68,1.83,1.86.05,3.8-.15,5.01,1.19,2.02,2.23,4.91-1.86,6.18.57,2.08,3.98,5.19.7,7.23,1.26.54.15.67,1.35.99,2.23.78,2.15,3.59,4.45,5.99,4.6l4.84.29c5.63,6.25,9.64,2.02,10.28,8.92l2.45,1.38,3,4.07c.29.4.26,1.85.73,1.98l2.13.59c.51.14,1.13,1.1,1.68,1.69,1.14,1.2,5.81,3.63,8.04,3.68l3.07,2.41c1.03.81,1.76,1.97,2.58,3.18.66.98,2.63,2.24,1.89,3.3l-1.63,1.26c-.35.27.33,1.77.76,1.63,3.08-1.03,3.76-3.34,5.61-2.94,1.54.33,1.17,3.72,2.24,3.47,2.59-.59,1.8-.31,5.81.67,5.57,3.95,6.49.95,11.61,5.16,1.96,1.61,2.68,4.22,3.97,6.16.93,1.4,2.61,2.41,2.91,4.14.57,3.3,3.81,2.06,3.81,5.14,0,6.91,1.92,1.26,1.05,11.41-.04.44-1.21,1.57-.93,1.89l1.49,1.74c.66.77.56,2.71-.23,3.65-3.71,4.43-.86,7.46-4.11,8.34-4.59,1.24.77,4.29-1.64,6.41-.97.86-2.48,1.82-2.99,2.7-.53,1.16-.83,2.79-1.45,3.35l-1.21,1.12c-.27.25-1-.24-1.31-.58l-.69-.76c-.28-.03-.71-.13-.73.11l-.17,1.5c-.01.09.31.63.38.7l.62.64c.12.12-.18.58-.34.71l-3.27,2.58c-.6.47-1.12,2.06-1.63,2.6-7.97,8.51-9.49,4.61-13.68,8.9-3.31,3.38-6.4,2.74-8.88,6.29-3.02,4.32-3.93-1.35-9.34,4.76-.71.8-2.44,1.47-3.14,2.11-1.53,1.39-2.58,1.69-4.85,2.15-2.49.5-5.13,2.49-7.49,3.82-2.03,1.14-4.58,1.74-6.71,2.8-.77.39-1.76,1.06-2.47,1.29l-5.84,1.93c-.56.19-1.77.94-2.32.94h-7.77s-2.13,2.57-2.13,2.57c-1.03,1.25-3.06-.67-4.03-.44l-3.8.91c2.4-.57-5.41-1.28-9.61,1.46-4.42,2.89-5.03.1-13.14,2.26-.7.19-1.95,1.21-2.66,1.49l-3.85,1.54c-1.05.42-2.15.7-2.88-.23-.44-.57-1.29-1.63-1.78-1.44l-2.07.81c-4.53-2.26-1.11,1.11-11.56,1.9-2.01.15-3.57.42-5.39.95l-2.72.79-1.78.51c-.38.11-.67-.96-.96-1.42-.99-1.6-3.04-.98-4.49-1.1-.87-.07-2.3-1.23-3.08-.33-1.5,1.73-2.39,1.02-4.25.69l-4.37-.78c-4.43-.79-3.45-2.53-4.29-2.18-.19.08-.92.53-1.13.52l-4.85-.05c-1.77,1.37-4.47.95-6.25.02s-3.13,2.7-5.02.07c-1.04-1.44-9.05-.38-11.12-.26-1.71.1-5.17-.86-6.56.1-.23.16-1.35-.36-1.63-.38-17.3-1.12-8.93,1.76-15.89,1.39-1.87-.1-4.23.16-6.29.49l-5.45.87c-2.13.34-4.65-1.53-6.84-1.99l-2.25,1.3c-1.67-.63-2.7-.03-4.16.3-2.5.58-4.88,1.32-6.73,3.33-2.66,1.01-1.9-2.39-6.69.16-6.66-2.17-7.07,2.57-13.3.84-.9-.25-.94-2.6-.99-3.81-.04-.85-1.79-1.43-2.86-1.74-1.2-.35-1.74-2.06-1.16-2.95.21-.32.38-.57.44-.68l.44-.97c.42-.93-2.33-.32-3.51-1.47-1.71-1.65,1.16-5.41-1.88-6.35-1.01-.31-3.67-1-3.35-2.64s3.19-.94,2.95-2.03c-.1-.47-.58-1.23-1.09-1.71-1.18-1.11-.92-3.96.6-4.38,2.05-.56,3.77-.97,5.65-1.23l1.16-.16c.64-.09.47-2.33.08-2.23l-1.28.34c-.66.17-2.09.87-2.77.9l-6.3.33c-.56,1.06-2.19,2.22-2.93,1.46-2.82-2.88-2.14-.78-8.15-1.48-4.48-.52-9.45-.08-13.62-1.89-5.31-2.3-7.94,1.36-6.98-.49.12-.23.45-.93.66-1.09l3.73-2.82,2.88-2.43c2.76-2.32,5.2-.88,8.79-5.3.26-.33-.22-1.08-.59-1.68-.49-.8.26-2.49,1.27-2.8,4.56-1.43,3.86.56,7.16-.17.82-.18,1.41-1.98,1.93-2.77.28-.41,1.36-1.07,1.79-1.38,1.66-1.22-.81-2.38.69-3.7,4.4-3.86,1.97-6.58,5.06-8.96l.38-4.34.8-.43,1.2-.66-.22-3.21c.97-1.76,1.52-3.15,2.04-4.92l1.23-4.15c1.35-4.56,2.21-8.99,1.16-13.69l-.24-.66c-.26-.71,5,.33,5.89-1.25l2.73-5.93c2.85-6.19-.72-6.15,2.65-9.38,1.12-1.07,1.17-2.75,1.66-4.21.61-1.79,2.99-8.4-.33-8.67-1.4-.12-2.94-.1-4.25-.62-1.99-.79-4.66-.04-6.81-.54-3.5-.81-6.87-1.46-10.11-.18-3.06-1.68-8.48-.09-13.88-.92-1.94-.3-3.3-1.31-5.13.47-.92.89-3.97,1.14-5.61.26s-.48,1.94-8.4,1.01c-2.43-.28-5.28,1.22-7.45.14s-3.51-.32-5.67-.02c-2.67.37-5.67.54-8.44.57-2.39.03-6.14-.9-7.94-.13-5.16,2.21-8.54-.58-10.3,1.63l-.48.61-3.02-1.06c-1.43-.5-3.14-.61-4.87-.55l-7.85.25c-.15,0-.83.31-.94.36l-.46.25c-4.44-1.63-8.89.05-13.42-.24l-7.95-.51c-1.55-.1-3.08.74-4.38,1.11-2.32.66-4.06,1-5.6,2.88s-2.74,3.59-3.85,5.77l1.84,1.83c-1.59,2.21-3.84,4.35-3.41,7.18l.65,4.32c.36,2.38-1.14,4-2.16,5.94-.53,1.01-.5,2.72-1.62,3.29-.93.48-1.6,1.31-1.67,2.04-.12,1.27.81,1.64,2.14,2.16-.27,2.16-3.6,2.68-1.25,7.43.39.79.56,2.5.83,3.44,1.07,3.72-.56,6.86-4.38,7.91l-.28,4c-2.84,1.85-5.13,3.64-7.45,6.16.49,1.17,1.4,2.24,2.36,3.42.61.76-.52,2.64-.99,3.69-.59,1.34-.95,3.41-2.28,3.68-4.28.86-4.26,2.04-5.48,7.24-.13.55.41,2.34.96,2.31,2.94-.15.58-.92,3.28-.46.27.05.39.85.24,1.11l-3.37,5.88c-.25.43-1.25.75-1.89.77l-1.72.07c-.7.03-.5,3.87.3,3.97l2.46.31c.72.09,1,1.92.58,2.72-1.78,3.43-2.16,6.88-3.14,10.4l-1.79,6.44c-.3,1.08-1.53,2.72-1.56,3.77-.06,1.98-.24,3.45-1.24,4.68l-.55.68c-.3.37-1.13-1.11-2.69-.88-.56.08-1.53,1.03-1.75,1.58l-1.73,4.45c-.03.55.85,1.66,1.42,1.82s1.67.02,2.9-.07c.09.34.18,2.06.13,2.81-.22,2.91-5.42-.37-5.64,3.13l2.64.42c.55.62-.27,3.1-.94,4-.25.34-1.27.07-1.75-.1l-3.36-1.15-.69.77c-1.54,1.72,3.57,2.84,5.58,2.56.58.63.37,2.71-.38,3.29-2.95,2.25-4.63-1.82-7.26-.13-.76.49-1.45,2.53-.91,3.72,1.08,2.37,6.16,3.24,4.96,5.76-.25.51-1.4.8-2.18.88l-2.34.25c-1.1.12.89,2.68-4.24,5.78l-.45,3.86-3.49,1.74c.25,1.7-1.27,3.27-2.22,4.09-.36.31-.35,2.17.13,2.23s1.52-.02,1.96-.22l2.36-1.08c.62-.29,1.48,1.19,1.6,1.88.59,3.59-5.62.88-7.18,5.11-.31.82,1.43,2.42,1.5,3.32.54,7.35,5.84.3.51,16.53-1.11,3.38-.63.46-5.2,2.75-.23.11-.76.7-.65.91s.5.82.58,1.05l1.41,3.88-3.14,4.17c-.3,1.16-2.39,11.85-4.43,11.11l.51,4.04c.25,1.94.06,3.28-1.95,4.82l-8.99-6.94c-1.06-.82-.07-1,.63-4.54.07-.38-1.31-.64-1.69-.55-.47.12-1.22.94-1.22,1.45l-.08,6.81c-.02,1.79,1.33,6.05,2.95,4.06l1.77-2.19.2,1.39c.4,2.79,1.23,2.85,4.93,3.57l.31.79c1.12,2.85-1.64,4.58-3.86,5.24l-.82.24-.25.98.68.53.9-.7,1.1,3.49-3.5,1.43c-.56.23-1.36.38-1.35.76l.04,2.24,2.35-.18-.81,2.1c-.45,1.17-.2,12.3-8.27,13.62l-.29,2.25c-.06.49.82,1.04,1.42,1.12l1.27.17c.58.08,1.03,2.43-.94,5.21-2.16,3.05-4.66,5.04-4.25,6.29.96.38,1.95.68,1.79,1.02l-.84,1.69c-.47.95-2.14,1.43-3.36,1.78l-2.64,3.86c-1.64-.06-2.86.41-3.93,1.62l-2.32-3.9c-.81-1.37-3.66-.05-4.05,1.27-.17.58-.37,2.19.13,2.46s1.38.66,2.14,1l.68.3c.09.04.78.31.86.27l1.37-.71c.24-.12.33.03.78.91,1.84,2.99,4.52-4.96,6.03-.84l1.15,3.14-3.7,3.23c-.31.27-.64,1.3-.38,1.51s.96.63,1.39.72l2.81.62-2.81,2.23c-.81.64-1.53,2.77-2.42,3.15l-.91.39-.69.29-1.62-.75c-.34-.16-1.15.88-1.02,1.31,1.43,4.98-1.84,6.84-2.64,8.71-.15.34.43,1.18.81,1.16.55-.03,1.71-.16,2.05-.49l1.34-1.31c.24-.23,1.05-.15,1.61-.12.41,4.47-2.04,2.12-1.93,5.53.17,5.12.22,4.1-2.74,7.86l.06,3c.01.62-.62,2.26-.95,2l-2.1-.83s-1.77.09-1.9.12l-1.02.24c-.21.05-.11.47-.02.79l.84,3.09c.22.77,2.24,1.32,2.82,1.87,1.8,1.69,1.01,4.56-.26,6.48-4.54,6.9-.19,9.66-.58,10.25-.23.35-.75,1.03-1.1,1.45l-1,1.18c-.24.29-.28,1.57.09,1.54.45-.04,1.46-.11,1.84-.19l.86-.18c1-.21,1.86-.34,2.22.8,1.72,5.35,5.59,6,3.54,9.76-1.63,3,3.8,3.75-.87,8.89-1.18,1.3-3.69,10.39-2.64,12.56-2.19,4.03-1.71,5.35-6.02,7-3.43,1.31-3.52-3.6-6.4-1.9-.57.34-1.09,1.7-1.03,2.46.19,2.38-2.39,2.35-3.67,3.21-2.67,1.79-5.33,1.4-8.13,2.13-3.87,1.01-7.46,1.97-11.5,2.46-5.73.69-4.42-3.07-6.93-1.13l-.63.48c-2.94,2.27-3.25-1.68-6.03-.43l-4.39,1.98c-2.26-.52-3.53.01-5.54.62-2.32.7-4.26,1.35-6.36,2.79l-5.56,3.81c-2.77.31-4.79-4.34-4.07-6.32.07-.2,1.12-.63,1.16-.42l.3,1.48c.21,1.03.04,2.35,1.7,2.57.68.09,1.43-1.23,1.58-2.29.14-1.01-.92-2.95-1.65-3.66l-2.12-.52c-.44-.11-.42-1.59-.28-2.02l.32-.99c.39-1.22-.76-2.13-2.43-2.45l-.9-3.75-.24-2.33-.5-3.74-1.15-5.7-2.98-4.4c-.89-1.31-1.66-2.45-2.41-3.63l-2.53-3.97c-.77-1.21-1.33-3.82-.43-4.83s1.58-1.71,2.14-2.6c.62-.98.12-2.47-.82-3.06l-.66.5-.53.4-.53.4c-.06.05-.48.25-.54.22l-1.14-.5-.25.85-.58.77-1.21-3.37c-.39-1.08.06-2.68.63-3.85.74-1.5-.41-3.24-.53-4.77-.19-2.41-1.57-4.86-3.2-6.51.04-.36.49-1.26.7-1.14l1.42.81c1.66.94,1.31,3.17,2.92,3.14.71-.01,2.05-1.73,1.77-2.37-.67-1.55-1.64-3.01-2.5-4.26l-2.21-3.24c-1.64-2.4-1.78-7.57-5.16-8.43-.34-.09-1.08.47-.94.82.17.43.58,1.29.56,1.68-.02.47-.97,1.35-1.36,1.08-.7-.49-1.63-.97-1.4-2.68.15-1.1.74-6.67-1.94-5.79l-.74.24-.73.32-.67.29-.64.29c-.2.09-.69.97-.79.78s-.54-.95-.74-1.06l-2.68-1.52c-.78-.44-1.34-1.86-1.09-2.68.21-.72,1.84-1.58,2.5-1.22l2.35,1.28c.46.25,1.73.61,2.06.25.39-.42,1.12-1.57.71-1.97s-1.38-1.12-1.93-1.54l-2.8-2.12c-3.54-2.68-3.42-5.64-4.93-6.05l-2.08-.58c-.73-2-1.89-3.88-3.61-5.25l-2.78-2.23c-1.73-1.39-.6,2.05-2.43-.26-1.5-1.9-1.36-4.25-.16-6.3,1.66-2.84-3.41-6.59-3.59-6.32l.74-1.17.42-.66c.55-.87,2.44-.01,2.65-2,.08-.72-1.3-1.7-1.99-2.09l3.02-3.19c.59-.62-3.29-3.51-3.14-3.4-.69-.53-2.98.37-3.38,1.14l-2.49,4.8c-.05.38.01.93-.18.94l-1.05.03c-.08,0-.47-.32-.54-.4l-.42-.52c-2.91-3.61-1.11-3.17-4.61-5.87l-1.02.63c-.43.27-1.54.29-1.73-.19l-.86-2.24-.27-.72-.33-.86c-4.33-.45-7.13-3.6-9.09-7.35l-.69-.37-.6-.38-.57-.37c-.09-.06-.73-.36-.73-.44l-.27-2.92-.09-.99c-.02-.18-.37-.77-.53-.66l-.86.56-.71.46c-.72.46-2.15.31-2.65-.46l-1.94-2.94c-5.23,1.88-4.03-5.97-8.35-1.45-.58.6-2.49.76-3.48.55-2.07-.45-.37-2.65-.5-4.2l-.08-.94c0-.08-.18-.57-.22-.64l-.33-.6c-.05-.09-.47-.72-.44-.81l.71-2c.15.32.02.04-.26-.53-3.38,3.14-5.53,1.29-6.45,6.03l-2.87,2.25c-.64.5-.96,1.84-1.29,2.87-2.38,7.55,1.13,2.95.37,12.59-.12,1.47.04,3.39-.31,4.7-.61,2.27-1.58,4.81-.46,6.91s.07,3.52-.11,5.75l-.5,6.07c-.17,2.04-.18,3.07-.02,5.08l.49,6.41c.15,1.96.63,2.55.19,4.57ZM543.09,86.38c2.82,1.33,6.82-.75,7.22-3.25l-2.37-4.2c-1.34.11-3.81,1.38-4.69,2.27,2.37,2.29-1.99,4.32-.16,5.18ZM757.7,84.65c1.11-.24,2.23-2.7.99-3.73-.75-.62-3.11-.37-4.01.35s.2,2.83.88,3.35l1-.69c.2-.14.83.51,1.15.72ZM720.4,86.21c1.42-.16,2.23-1.2,1.96-2.1-.17-.57-1.23-1.46-1.91-1.4-1.18.1-2.08.97-2.16,1.8s1.05,1.82,2.11,1.7ZM761.83,99.57c-.76-2.38-1.66-2.96-3.64-2.77-.46.04-1.94.18-1.8.6l.64,1.95c.45,1.37,1.42,2.41,2.91,2.33.84-.05,2.16-1.3,1.9-2.11ZM542.95,103.73c.61-.2.15-1.98-.36-2.36-.43-.31-1.83-.65-2.16-.23s-.15,1.8.2,2.18,1.59.66,2.32.42ZM534.65,112.3c.83-.53,1.84-1.72,2.26-2.57.31-.64-.38-2.14-1.06-2.69-1.82.54-2.66,2.92-1.2,5.27ZM594.77,115.03c1.79-.32,2.11-3.15.75-3.82-.67.22-1.49,1.01-1.6,1.61-.1.53.35,2.3.85,2.21ZM537.38,125.35c.04-.31,1.32-.16,1.34.15l.06,1.3c.02.46-.07.78.15.86.18.06.67.19.68.19-.92.17,3.91-3.96.54-6.95-.96-.85.7-2.41-.71-7.04-.19-.62-2.4.03-2.4.67l-.03,6.05-3.7.52c-.59,1.95.58,8.35,3.68,7.55l.39-3.31ZM734.17,118.9l.04-3.7-3.01-.95c-.76,1.36-1.24,2.7-.9,4.29l3.86.36ZM607.97,127.92c.07-4.15,1.12-9.13-4.38-10.02-1.42,2.2-1.96,4.95-1.03,7.43l2.6,2.13c.52.43,1.84.49,2.81.47ZM627.21,130.57l-1.37-3.6c-4.28-1.01-3.12-5.31-5.96-4.73-.72.15-2.03.95-1.94,1.6.11.81.85,1.8,1.39,2.51l1.51,3.66,2.86,3,3.52-2.44ZM657.07,133.52c1.89.08,2.51-1.25,2.07-2.11-.56-1.09-1.48-2.02-2.76-1.39-.91.45-.43,3.45.7,3.5ZM537.13,142.36l-1.87-6.71c-.14-.5-1.03-1.24-1.43-1.4s-1.64.63-1.63,1.08l.05,6.31c1.52,1.43,3.52,1.85,4.89.72ZM527.85,147.48c-.04.59.67,1.73,1.08,1.61.33-.1,1.36-.78,1.35-1.15l-.18-9.12c0-.35-.8-1.37-1.11-1.26-.85.31-1.96,2.13-2.02,2.98-.03.43.8,1.1,1.29,1.61l-.41,5.33ZM645.11,137.99l-3.88.09c-.07.51.11,1.73.42,2.09s1.56.26,1.88-.17l1.57-2.02ZM635.29,145.78c.93-.58,2.15-1.21,2.09-1.87l-.29-3.24-2.8,1.45.99,3.65ZM685.29,159.03c-.25,1.1-.02,3.3.67,3.89s2.6,1.24,3.59.98c.65-.17.74-2.33.38-2.88-.66-1.02-4.36-3.3-4.65-1.99ZM530.4,167.74l1.61-2.38-3.88-5.21-.05,4.24c-.02,1.47.29,3.15,2.32,3.36ZM521.81,171.34c1.05-2.15.82-2.01.62-3.11l-.64-3.44-2.77,4.23c.54.58,1.9,1.69,2.79,2.32ZM518.16,189.83l.02-4.71c-2.75.26-2.78,3.31-2.1,4.38.23.36,1.63.44,2.08.33ZM526.16,192.35l-2.82-.97c-.73-.58-2.28-.71-3.12-.15.43,1.9,1.34,3.62,2.46,4.66.96-2.33,1.41-2.93,3.49-3.54ZM522.21,218.68c-.08-.76-.09-1.87-.4-1.87l-1.25-.03c-.55-.01-1.53,1.1-1.48,1.66s.76,1.35,1.4,1.61c.53.22,1.8-.73,1.73-1.37ZM501.64,241.32c2.73,1.4,3.82-.34,5.2-1.93.39-.44,1.48-1.27,1.29-1.76-.22-.55-.89-1.33-1.34-1.6-1.93-1.16-4.48,4.12-5.15,5.3ZM259.03,241.16c-1.43-.41-2.45-.39-3.16.22-.35.3-.91,1.62-.58,1.91s1.05.67,1.49.81c.34.1.96-.68,1.18-1.06l1.07-1.88ZM170.18,348.56l3.94-.95c3.27-.79,8.93-1.08,13.92-1.98l5.26-.95,4.6-1.11c4.76-1.14,4.75-.02,9.05-2.24,9.71-5.01,14.87-1.79,24.62-6.66,1.06-.53,2.06-.36,3.09-.46,2.16-.21,4.17-.86,6.12.7l3.35-.23.42-2.96c4.09-2.27,7.09-2.41,10.18-3.19l8.77-2.22c3.45-.87,4.48-4.38,10.28-1.73.63-2.59,3.16-2.95,5.93-2.63,1.35-1.76.18-5.19-2.23-5.94l-.5-5.35,4.69-4.74c.59,1.43.39,2.83-.5,3.95-1.32,1.66-.73,3-.32,4.84.37,1.69.43,3.35,1.64,4.63.81.86,2.92,2.04,4.01,1.27,1.29-.91,2.32-1.44,3.76-1.89.95-.3,2.01-2.4,1.99-3.44l-.1-8.6c4.36-2.59,4.31-6.66,3.11-10.71-.87-2.95.63-6.57-.45-9.33-1.9-4.86,1.33-3.25.22-6.49-.22-.65-1.58-1.78-2.14-1.43l-2.61,1.84c-.05-2.51-.06-5.23.09-7.59.05-.8,1.27-2.63.64-3.11-1.64-1.26-1.42-2.56-1.52-4.45l-.41-8.15c-.13-2.58.16-4.36-.91-6.7-.46-1.01-.74-2.47-1.77-2.86-.76-.28-2.1.05-2.84.64-3.08,2.46-1.21,3.93-4.26,4.87-.76.24-1.96.08-2.94-.17-3.01-.76-5,2.09-7.47,2.68-2.05.49-4.1.52-5.27,2.69-.44.83-2.98.57-4.08.46-1.38,3.29-4.01,4.49-7.08,5.39-1.94.57-3.96,1.78-6.14,2.12-7.2,1.11-4.78,4.57-8.42,7.19-2.33.5-4.37,1.33-6.11,2.94-5.12,1.44-6.55-1.54-8.53-.37-.22,1.71-.51,3.15-.99,4.55-1.72,5.07-5.76-.64-8.6,4.95-.73,1.43-1.83,2.98-3.04,4.19-2.68-1.59-.59-5.87-2.79-6.7-1.78-.67-2.53,3.22-5.49,2.93-.33.03-.67,1.83-.27,2.21l1.68,1.58c.87.82.76,3.92-.2,4.66-1.29.99-3.72,2.04-4.35,3.21-1.02,1.91-1.65,1.88-3.6,2.1-3.5.4-5.78,3.79-6.98,6.89-.25.64-1.51,1.73-1.87,2.33-1.24,2.11-2.67,4.31-5.6,4.62-9.66.99-3.59,2.36-7.93,4.85l-4.82,2.76c-.95,1.84-1.81,2.77-3.38,4.09l-1.58,4.47c-1.99.77-1.91,2.24-2.83,3.63-6.1,9.16-5.29,3.5-7.84,9.32l-2.39,1.4-.72,1.61c-.57,1.28-3.7-2.14-5.92-.61l.96,3.24c.25.84,1.13,2.95,2.07,3.11,7.27,1.19,6.48-1.7,12.32-.52l3.21-1.76c1.65-.9,2.11.66,7.86-.73ZM299.72,255.29c.55-.75.78-2.94.27-3.68-1.12-1.64-3.89-2.51-6.02-1.19l2.44,4.82c.37.73,2.83.7,3.31.05ZM554.37,292.99c1.17-.13,2.81.02,3.37-.55,3.04-3.09,5.68-.84,5.77-2.28l.07-1.23.07-1.06c.09-1.28,3.81,2.35,4.75,1.91l3.68-2.78c2.41-1.82,4.18-3.94,7.64-3.54,2.7.31,4.47-1.96,4.42-4.7l3.2-.2c.49-.74,1.64-2.99,1.11-3.83-.7-1.1-2.44-1.82-3.82-2.56-3.69,2.52-3.45,6.98-5.6,6.63-.38-.06-1.06-.93-.85-1.25l.89-1.38c1.3-2.03,2.45-3.49,4.79-4.5.29-1.35.22-3.6-.29-4.94-.71-.4-2.11-.44-2.22-1.02l-.47-2.29c-.25-1.23-1.23-2.4-2.18-2.82-.83-.36-2.36,1.16-3.18.96l-3.78-.93-2.08-3.06-7.58.13c-3.38.06-6.8.58-9.28,3.21l-2.57-.8c-1.43-.45-3.75,1.56-5.03,1.4-1.39-.17-2.4-.64-3.63-.05l-4.18,2.01c-2.23,1.07-4.5.29-6.49,2.06-.47.42-1.31.98-1.81,1.08-.42.08-1.37-.7-1.88-.76-2.26-.23-4.51,1.59-5.33,3.4-1.04,2.3-.7,4.46.03,6.86l-2.21,4.05c-1.47,2.69-2.49,5.01-2.73,8.16-.12,1.53-2.65,3.6-1.83,5.42.92,2.05,1.2,3.67-.75,5.36,2.59,3.63,2-.1,9.76,2.8,1.22.46,4.12-.78,5.32.04l3.02,2.07,2.84-2.1c.57-.42.69-2.02.89-3.04l7.24-2.76c2.15-.82,3.28-1.28,5.61-.79,1.74.36,3.69-2.16,5.31-2.35ZM596.67,261.55c.48-.32.86-1.69.43-2.03s-1.93-.58-2.61-.45c-.51.1-.2,1.69.22,1.99s1.53.76,1.97.48ZM201.66,280.17l2.09-3.94c.16-.31.18-1.38-.15-1.4-2.8-.19-2.94.43-4.49,3.65.78.61,2.17,1.52,2.55,1.69ZM305.16,311.74l.02-4.44c-2.1-.97-5.47-.56-5.99,2.21-.25,1.34,1.96,3.31,3.34,3.9.69.3,2.62-.8,2.63-1.68ZM392.46,312.73c.64-.07.98-2.09.54-2.56s-2.02-.43-2.84-.12c-.46.18-.09,1.8.29,2.13s1.32.63,2,.55ZM400.1,316.97c.24-1.23-1.35-2.36-1.95-2.03-1.27.72-2.34,2.61-1.42,3.6.87.13,3.21-.75,3.37-1.57ZM578.41,426.2c1.53-.78,2.94-.62,3.94.58l3.88.36c1.83.81,3.44,1.09,5.09-.13l3.26.46c2.19-.8,4.72-.16,6.57.08,1.13.12,3.83-1.22,4.43-.3.49,1.83,2.51,4.95,3.87,6.5,1.23-.26,2.7-1.51,3.23-2.4-.49-1.16-1.29-3.5-.32-4.17,1.63-1.12,3.45-1.16,5.27-1.21,2.4-.07,5.3-1,7.54-.67,2.37.35,4.03-.06,6.09-.65.95-.27,2.67-.39,3.7-.62l4.39-1.02,6.24-.61,6.12-1.56c1.05-.27,3.68.43,4.69-.2l4.63-2.88c.24-.93.76-1.91,1.38-1.89.77.02,1.57.34,1.69.81l.49,1.93c.32,1.25,4.81-.87,6.15-3.24.78-1.38.47-3.99.73-5.19l4.34-2.2.72,2.87,3.61-.77,3.31-.71c.33-.07,1.05-1,.88-1.3-1.21-2.17-2.44-.47-3.29-2.46l4.09-5.14c-.11-1.19-.39-3.07-.37-4.05l.66-4.02c.22-1.34.02-2.78-.4-3.99l-.52-1.49.62-.97-3.29-.45c1.19-1.91,1.77-2.98,1.53-4.77-.19-1.42-1.48-2.41-2.91-3.3-1.19-.74.89-6.58,2.67-6.88l.88-5.18c1.7-1.66,1.49-2.98.51-4.77-1.44-2.61-3.24-5.41-5.81-7.05l-3.93.55c-1.1-3.41-3.52-5.02-5.93-7.18s-5.68-3.64-8.64-.82c-4.26-3.83-8.87-6.81-14.14-8.9-5.68-2.26-3.5-2.85-9.13-4.33-1.31-.34-2.96-.65-4.09-1.71-3.84-3.62-4.92-1.49-10.5-3.52-1.11-.41-3.09-1.28-4.03-.89-3.46,1.43-5.64-.87-8.34-1.14-1.56-.16-3.35-.12-4.9-.4l-5.76-1.06c-4.52-.83-9.23-.49-13.9-.06-.86.08-6.63,2.55-8.64.19l-4.72.76-6.75.97c-2.18.32-4.67,1.84-6.83,2.4-6.52,1.71-4.16,2-9.46,2.8l-6.32.94-6.06,1.06c-2.01.35-4.11,2.66-6.28,2.58-2.34-.09-3.83.44-4.51,2.91l-4.16.04c-1.06,3.11-7.81,2.22-10.11,1.76-.71-.14-2.48.22-3.17-.08-1.32-.58-4.59-1.34-4.82.16l-1.14,7.22c-.46,2.9-4.94,5.67-2.49,11.01-1.23,2.88-3.35,5.79-3.57,8.94l-.45,6.26c-.15,2.09-1.84,3.88-2.05,5.98-.15,1.5-.17,3.79-1.09,4.65-3.27,3.04-1.31,1.43-1.61,9.34-.07,1.72-.97,2.74-1.78,4.21-1.05,1.89.13,5.19-2.18,6.99-.52.41-1.3,1.7-1.21,2.35.07.56.81,1.46,1.3,1.85l1.8,1.41,3.69-2.66c.39-.29,2.23-.42,2.33.07s.09,1.56-.07,2.03c-.05.15-5.2,2.84-6.83,2.69-.83.11-2.12,4.34-2.14,5.11-.02.56,1.17,1.07,1.55,1.67.48.78,1.22,3.03,2.16,3.01l5.41-.09c5.73,4.92,5.47-3.38,11.99-.66,5.06,2.11,6.34-.87,10.8,3.22.33.3,1.79.72,1.88.33l.35-1.51c.13-.57.61-1.53.99-1.9s1.83-.18,2.09.31c2.51,4.84,1.61-1.47,8.32.72,2.47,3.33,1.35.71,8.06.07,1.31-.12,2.76-.6,4-.03,1.61.75,3.2.64,4.93.1l3.01,1.65c.48-.75.75-1.59,1.08-1.54l1.56.24c4.12.62,7.21,3.43,11.68,6.04.78.46,2.38.59,2.99,1.31.35.41,1.4,1.08,1.71.78l1.37-1.35-2.36-2.28c-1.85-.26-3.4-.84-4.77-1.87,2.07-2.33,3.95-1.01,6.09-.56,1.36.28,3.35.24,4.84.25.61,0,2.1.55,2.62.29ZM284.08,364.16l.13,7.72c2.33-.98,2.83-8.12-.13-7.72ZM696.71,379.77c2.1.75,3.11-1.19,3.49-2.45.41-1.37-.24-3.34-2.04-3.36-1.51-.02-3.26,4.2-3.15,4.63s1.12.97,1.7,1.18ZM284.25,377.69c.29-.98.42-1.39.1-1.73s-1.46-1.16-1.68-.83l-1.03,1.59c-.29.44-.46,1.51-.26,1.96s1.54.69,1.84.31l1.03-1.29ZM288.16,385.3c.01-.68-1.34-1.81-2.06-2.33-.48-.35-1.94-.11-2.28.4-.68,1.01.67,3.01,2.33,3.39.53.12,1.99-.71,2.01-1.46ZM292.9,391.8l.51-3.22c.32-2.03,1.44-4.31.04-6.01-.1,6.07-2.66,4.34-2.39,7.67.04.48.77.9,1.83,1.56ZM695.13,392.6l-1.5-5.26c-1.57-.93-4.34-1.08-6.34-.51-.53,2.48.21,4.28.82,6.59l.22,5.25c1.38.11,7.5-3.62,6.8-6.08ZM703.5,399.39c.88-.27,1.1-2.28.57-2.98-.68-.9-2.43-.76-3.27-.08-.78.63-1.61,1.15-1.64,1.73-.03.73.13,2.01.24,2.6l4.09-1.27ZM691.31,406.95c2.86.01,4.98-1.08,5.84-3.79.26-.82-.83-2.33-1.64-2.51-1.1-.25-2.27.47-3,1.37-.41.51-1.89.99-2.42,1.37l-2.86,2.04c.92,1.19,2.24,1.51,4.07,1.52ZM297.48,429.91c.61-1.75.61-3.34-.24-4.93l-.73-1.37c-.13-.23-1.3.75-1.32,1.01-.08,1.74-.12,5.11-.1,6.99.25.32,1.68.32,1.82-.08l.56-1.61ZM637.05,429.08l1.5.71c.99.47,3.05-1.1,3.51-2.04l-1.29-2.53c-.79-.45-2.91-.23-4.05.34-.87.44-1.15,2.37-1.94,3-.73.59-1.62,1.17-1.86,1.69-.28.61.55,1.74,1.26,1.64,2.14-.31,2.05-3.18,2.86-2.8ZM682.58,430.33c1.73.91,5.14.96,6.27-.63s-.75-3.6-2.32-4.11l-3.28,2.67c-.4.33-1.15,1.82-.68,2.06ZM264.8,470.55c.05-3.54,4.58-3.75.88-8.26-3.75,2.41-4.72,7.1-1.92,10.89.78-.31,1.03-1.36,1.05-2.63ZM252.11,498.28c.13-.34-1.04-1.55-1.31-1.38-1.32.84-2.13,2.36-2.32,3.86,1.58.1,2.94-.64,3.63-2.47ZM245.37,531.83l2.69-3.99c-.6-1.15-1.7-2.76-.32-3.78.61,1.94,2.48,2.45,4.19,1.65,1.56-.73,1.93-2.95.82-4.52l-3.5,1.82c-1.16-4.16,1.32-3.76.99-8.47-1.36-3.79,3.19-4.38,1.72-7.05-.29-.53-1.26-.86-1.94-1.23.29-1.15.52-2.3-.56-2.79-1.85-.83-4.89.76-4.46,1.97,1.17,3.32-1.8,4.89-2.41,7.22s-.84,4.79-2.97,6.19c-.63.42-1.32,1.88-1.33,2.52s.78,1.46,1.62,2.1c.57.43,2.13.49,2.53-.02,1.54-1.96-.28-3.18.97-4.59.32-.36,1.75.18,2.08.6.99,1.24-1.34,1.75.23,4.79l-3.39,4.55.94,3.24c.08.29.86.84,1.11.67s.8-.63.98-.9ZM241.4,511.6c.43-1.82,1.66-3.9,2.62-5.66.35-.64-.86-2.08-1.56-2.21-2.48-.43-1.49,3.4-3.91,8.69-.27.58,1.05,1.73,1.63,1.61.92-.19.84-.84,1.22-2.43ZM238.01,526.26c.36-.41.17-1.63-.2-2.03-.31-.33-1.61-.18-1.82.2-.28.52-.93,1.6-.66,1.99l1.12,1.59,1.56-1.75ZM252.14,538.44l-2.47-4.28c-.6-.45-2.89.33-3.33,1.1-.98,1.72,1.06,7.12,2.37,7.45,2.34.58,3.93-3.38,3.42-4.27ZM262.26,545.69l2.69-.8,1.98-5.36c.79-2.15-1.06-5.44-3.6-5.42-.94.19-2.54.83-3.41,1.2.38,2.15-.27,3.2-1.78,4.07.11.64.48,2.03,1.05,2.11l2.7.39.37,3.82ZM248.82,549.59l-1.9-4.27c-.16-.37-1.71-.22-1.75.2-.61,5.82,2.15,5.47,2.16,5.46l1.48-1.39ZM241.05,551.08c-.25-.63-2.48-.5-2.6.16-.1.55-.03,1.86.08,2.45,1.31.04,2.9-1.66,2.52-2.61ZM256.84,578.79l-2.54-.05c-.15.51.04,1.9.51,2.05s1.29.14,1.78.03.75-2.01.25-2.02ZM248.43,595.71c.46-.15.71-1.57.33-1.65l-1.52-.31c-1.63-.33-2.73-1.11-3.98.58,1.02,1.11,3.2,2.01,5.17,1.38ZM99.86,596.04c-.4-.1-1.75-.15-2.15-.06-.54.98-1.2,2.88-1.29,4.25-.05.79,2.25,1.24,2.94.85,1.57-.9.71-4.99.5-5.04ZM81.71,601.43c.22-.07.57-1.31.36-1.41l-1.02-.48c-1.36-.64-2.67-.98-3.55-.04-.73.79-.58,3.44.35,3.15l3.85-1.22ZM82.91,612.36c.03.51.24,1.46.65,1.45,2.6-.08.67-.52,4.27-2.38,1.81-4.09-1.88-5.48-3.07-9.36-.37-.59-2.01.27-2.29.91-1.24,2.85.37,2.25.97,4.21.36,1.17-2.41,1.13-2.62,2.86-.06.5.36,1.92.79,1.67l.93-.55c.13-.07.29-.06.29.09l.07,1.1ZM243.83,613.86c-1.01-.1-2.95-.09-3.91-.06-.25,1.26.17,3.55,1.28,3.59,1.04.04,2.17-.48,2.73-.87.48-.34.47-2.6-.1-2.66ZM220.35,623.67c-.65-.05-1.92.76-2.24,1.38-.8,1.58-1.08,3.59.39,4.74.65.51,2.6.1,3.11-.55,1.37-1.77.28-5.44-1.26-5.56ZM226.61,633.94c-.29-.01-1.27.11-1.54.23-.81.37-1.24,1.93-1.11,2.79.15.94,1.37,2.03,2.48,1.62,1.56-.58.81-4.61.16-4.64ZM115.74,635.17c-.43-.85-3.04-.15-3.31.76-.29.99-.2,2.4.05,3.67,1.64-.53,3.9-2.16,3.26-4.43ZM145.35,694.66l-.34-1.71c-.06-.31-1.37-.09-1.65.07-.86.5-1.69,2.04-1.74,3.09-.03.8.85,2.61,1.65,2.61,1.85,0,2.42-2.27,2.07-4.06Z"/><path d="M429.9,279.21c-2.98-.38-5.53-.96-8.27-1.68-2.38-.63-4.44-.58-6.24-2.58l-6.33-.26c-2.01-2.93-4.17-5.09-6.39-7.66-2.86-3.31-3.67-7.77-5.56-11.69-.81-1.31-3.88-2.78-3.95-4.33l-.28-6.11c2.07.98,4.95,2.08,5.79.15.44-1.02.97-2.96,1.29-4.33l.35-1.51c.24-1.04,8.47.32,9.44-.78,2.36-1.59,4.1-2.32,6.76-3.12,2.18-.66,3.76-3.92,5.15-5.54,2.18-2.54,5.5-1.44,8.18-2.17s4.38-2.35,7.39-1.61c1.14.28,3.17-.88,4.22-.92l10.06-.36c2.73-.1,3.17,4.04,2.51,5.97l.37,4.15c-1.19,1.19-2.03,2.86-1.18,4.42.95,1.76,3.14,1.59,5.19,1.61,1.06.9,1.75,3.28,2.36,4.67l1.81,4.08c.23.51.54,1.8.5,2.35-.04.64-1.15,1.55-1.74,1.75l-2.45-2.68c-3.25,1.01-.72,4.27-2.09,6.4-1.95.26-2.02,1.4-2.84,2.63-4.91,7.34-11.09,6.48-11.99,12.02l-4.7,2.1c-.29,1.69-.84,3.78-2.04,4.9-1.56,1.45-3.63.36-5.32.15ZM425,269.29l5.84,1.43c2.86-.18,2.83-4.49,4.34-5.81,3.06-2.66,4.04-6.03,1.78-9.72-2.44-3.98-7.01-4.18-11.35-4.72-3.05-.38-5.61-.71-8.67.08-2.21.57-3.46.64-4.4,3.2-.45.88-1.19,1.8-.79,2.45,1.57,2.5,2.68,1.34,7.2,4.37.83.56.87,2.97,1.18,4.05.55,1.92,2.72,4.15,4.88,4.67ZM415.38,263.54c-1.2-1.85-3.48-2.35-5.22-1.13.71,2.88,1.9,6.57,4.8,7.38l9.91,2.76c1.91-3.98-3.65-.03-9.49-9.01Z"/><path d="M390.36,423.22c-3.58.56-7.1,1.45-10.4.43-1.25-.39-1.94-.5-2.99.72l-4.85-1.58c-4.86,2.7-2.92-1.87-6.98.99-1.5,1.06-2.4-1.78-3.17-2.65-.85-.28-2.71-.9-3.58-1.07l-6.16-1.14c-.78-.14-1.94-.19-2.06-.7-.56-2.46,1.35-.84,2.77-4.33.6-1.47,1.14-2.43,2.07-3.98l-1.9-2.67c1.34-5.38,3.46-5.39,2.93-10.01-.07-.57.27-2.18.8-2.17s1.54.28,2.38.51c2.15-1.12,2.95-5.01,3.2-7.27.03-.23,2.67-4.81,4.35-4.93l.84-2.6c.2-.61,1.89-.82,2.36-1.31,1.64-1.74,6.55-5.7,8.13-6.51,1.86-.96,2.42,1.63,3.17,2.45,1.66,1.83,4.7,3.15,7.01,3.43,2.77-4.04,3.11-.24,7.02-3.76.48-.43,1.75-.13,2.28.3,3.16,2.61,4.67-.03,5.76,2.88.53,1.43,1.48,2.7,2.48,3.82l-.73,1.64c-.2.45.73,1.36,1.22,1.62,4.45,2.38-1.01,3.02,5.61,6.38,1.87,7.69-2.77,5.47-.01,11.89l-3.44,3.86c-3.04,3.41-6.66,3.59-7.27,4.21l-3.87,3.92c-1.62,1.64-2.24,4.59-2.55,6.94l-4.39.68ZM393.92,407.87l-1.14-6.31-2.14-2.51c-1.25-1.46-2.93-3.38-4.95-2.95-.26,1.38-.78,3.42-1.84,3.88-.3.13-1.37-.11-1.62-.3s.11-.61.58-1.25c.35-.47.38-1.69-.17-2.07-.45-.31-1.47-.15-2.11.02l-1.67-.46c-.4-.11-1.13.78-1.36,1.18l-2.93,5.19c-.34.6-.47,2.25-.69,2.91-.55,1.65-.79,2.99-.13,4.53l1.89,4.39c.33.77,1.99,1.9,2.69,2.4,1.63,1.16,3.94-.53,5.43-.55,3.82-.05,6.63-.65,8.57-4.12.59-1.07,1.82-2.69,1.59-4ZM376.33,420.23l-3.87-2.43c-1.21-1.49-2.54-2.61-4.27-3.43-4.7-2.23-1.83-5.54-4.54-6.22l-3.56,2.24,2.58,5.66,2.43,1.39c2.36,3.79,7.17,5.27,11.24,2.79ZM386.89,418.49c.06-.6-1.34-1.71-1.9-1.48l-2.94,1.23c.42.76,1.39,1.49,2.14,1.66.87.19,2.62-.58,2.71-1.41Z"/><path d="M202.1,619.82c.96-7.76-.64-1.89-2.46-9.58l-.46-1.96c-.33-1.39,3.55.99,4.43-1.93.32-1.06,1.84-5.46,2.11-5.48l2.25-.11c.79,2.36.05,4.8-1.52,6.95-2.31,3.15-.09,2.26-2.03,9.84l-.46,1.8c-.1.37-1.13.5-1.85.46Z"/><path d="M262.92,427.4c.16.5,1.01,1.33,1.09,1.84s-.36,1.68-.87,1.74c-.58.07-1.92-.14-2.04-.65l-.76-3.11,1.61-6.38c.28-1.1.08-2.76.64-3.16l1.52,1.83c.37.45,1.7.27,3.01.37-.11,2.76-5.14,4.64-4.2,7.52Z"/><path d="M209.87,590.65l-1.27,1.81c-.34.49-2.27.27-2.63-.2-.45-.58,1.75-5.33,2.02-5.81.37-.66,2.37-.61,2.88-.18l-.69.95c-.12.17.39.64.66,1.02.36.51-.41,1.6-.98,2.42Z"/><path d="M244.9,437.43c.34.48-.66,2-1.21,2.01-.64.02-2.04-.24-2.83-.77-.89-.59-.69-3.03-.21-4.25,1.59.69,3.46,1.88,4.25,3.01Z"/><path d="M262.64,441.82l-3.38-.03-.11-4.58c0-.28.49-.93.7-1.08.28-.2,1.27.41,1.38.79l1.42,4.9Z"/><path d="M218.17,571.18c.28.93-3.01,1.39-3.53.56-1.05-1.73,1.31-4.05,2.31-4.48l1.22,3.92Z"/><path d="M221.22,565.77l-4.24.68,4.75-4.63c.72.96,1.32,1.75,1.46,2.29.19.75-1.25,1.53-1.97,1.65Z"/><path d="M223.1,529.38c.49.41,1.31,1.75.9,1.95l-1.48.73c-.74-1.65-1.08-2.29-2.06-3.76-.44-.66.6-2.07,1.36-2.66l.69-.53c.12-.09.42.02.42.17,0,1.87-1.6,2.62.17,4.1Z"/><path d="M532.09,87.3c-.22,1.02-1.37,2.8-2.49,3.87-.35-1.05-.12-2.12.32-3.16l.57-1.33c.15-.35,1.69.24,1.61.62Z"/><path d="M269.24,409.75c.03,1.38-.69,1.25-1.33.02l1.72-4.95c1.15,1.64.55,3.09-.39,4.93Z"/><path d="M192.79,659.55c-.64.95-3.49-.48-3.36-1.34l3.36-.99c.16-.39.35,1.8,0,2.33Z"/><polygon points="281.6 514.9 280.36 513.58 281.47 509.95 282.8 511.15 281.6 514.9"/><path d="M248.89,421.65c-.21-.04-.84-1.19-.94-1.7s.47-1.89.97-2,1.62.81,1.55,1.25c-.08.53-.6,1.23-1.58,2.45Z"/><path d="M779.23,174.26c.38,1.01-3.99,1.11-4.26.16l2.44-1.36c.22-.12,1.23-.32,1.32-.11l.5,1.31Z"/><path d="M286.92,297.01l-1.63-2.05c.8-2.26,1.67-4.17,3.02-6.17.43.42.97.91.86,1.19-.14.36-.68,1.19-.8,1.62l-1.45,5.41Z"/></g></svg>