<?xml version="1.0" encoding="UTF-8"?><svg id="Layer_2" xmlns="http://www.w3.org/2000/svg" viewBox="0 0 240 360"><defs><style>.cls-1{fill:#fff;}</style></defs><g id="Layer_1-2"><path class="cls-1" d="M0,0h240v360H0V0ZM171.12,59.76h-102.48v240.48h102.48V59.76Z"/><path d="M171.12,59.76v240.48h-102.48V59.76h102.48ZM118.94,133.58c1.55-7.19-.89-14.29-5.85-19.37-4.38-4.48-11.12-7.15-16.93-9.65-3.4-1.46-6.09-3.87-7.37-7.44-.88-2.46-1.46-5.15-.97-7.87.78-4.35,3.33-8.54,7.25-10.8,4.61-2.65,10.67-2.25,14.99.8,3.84,2.71,5.12,7.92,3.56,12.16-.94,2.56-3.06,4.51-5.6,5.09s-4.81.17-6.83-1.08-3.01-3.63-2.05-5.81c.57-1.3,2.03-1.65,3.29-1.26,1.17.36,1.69,1.52,1.87,2.89l3.86.02c1.51-3.17.31-6.81-3.12-8.13-3.19-1.23-7.21-.7-9.57,1.99-2.08,2.36-2.46,5.76-1.55,8.78,1.15,3.79,4.34,6.83,8.19,7.85,2.62.69,5.33.44,7.88-.25,8.63-2.32,11.75-12.64,8.55-19.75-2.13-4.73-6.24-8.43-11.26-9.9-9.35-2.75-19.6,1.93-23.44,10.92-2.59,6.07-1.95,13.1,1.02,18.86,1.52,2.96,3.91,5.01,6.67,6.71,5.41,3.34,10.22,4.24,15.84,8.37,7.16,5.26,8.57,15.37,2.7,22.16-2.89,3.34-7.23,4.96-11.66,4.78s-8.67-2.76-10.61-6.85-.49-11.74,6.02-13.07c2.96-.6,6.19.71,7.85,3.33.84,1.32,1.12,3.26.21,4.53-.74,1.04-2.39,1.03-3.45.37-.82-.51-1.32-1.57-1.48-2.8l-4.05.02c-.71,1.93-.72,4.21.51,5.93,1.77,2.46,4.91,3.31,7.81,2.73,2.59-.52,4.97-1.9,5.96-4.45,1.05-2.72.91-5.94-.45-8.59-1.92-3.77-5.65-6.35-9.93-6.71-5.68-.48-11.37,2.52-13.79,7.81-2.11,4.61-1.94,10.33.56,14.73,3.3,5.8,9.76,8.77,16.23,8.65,2.16-.04,3.95-.19,5.97-.91,6.5-2.34,11.66-7.78,13.17-14.78ZM127.71,71.58l-.02,77.65h30.14s.02-77.64.02-77.64h-30.14ZM90.29,195.97l-.03-16.73c0-2.26.36-4.39,1.03-6.48,1.03-2.59,3.03-4.47,5.82-4.94,4.61-.78,9.06.54,10.56,5.41.7,2.26.71,4.48.69,6.96h7.85c.38-8.59-2.42-17.53-11.8-19.57-3.62-.79-7.32-.77-10.93.11-8.27,2.03-11.58,9.7-11.58,17.62v40.01c0,7.79,3.56,15.29,11.6,17.35,3.65.94,7.43.96,11.09.08,4.55-1.1,8.14-4.1,9.98-8.38,1.19-2.77,1.83-5.7,1.83-8.78v-14.15c-.02-3.13-.68-6.13-1.92-8.92-1.65-3.71-4.82-6.2-8.81-6.9-6.39-1.12-12.31.81-15.36,7.31ZM138.26,235.59l19.15-67.3.03-7.49h-33.91s-.07,7.55-.07,7.55l25.46.02-19.1,67.28,8.44-.06ZM106.01,262.98c1.18-.41,1.92-1.84,1.93-3.06l.03-13.38-1.89-.05v13.12c0,.58-.48,1.57-.95,1.72-.54.17-1.19.25-1.92.33v1.64c.95-.01,1.85,0,2.8-.33ZM115.33,246.58v13.1c0,1.25-.75,2.09-1.94,2.07-.89-.02-1.82-.73-1.82-1.89l-.02-13.32-1.88-.05.05,13.64c0,2.18,1.81,3.47,3.8,3.42,1.88-.05,3.54-1.35,3.55-3.41l.05-13.65-1.8.09ZM126.7,263.24c-.75-3.1.88-6.44-1.94-8.12,1.16-.84,1.75-1.82,1.72-3.12l-.06-2.67c-.03-1.45-1.28-2.79-2.8-2.81l-4.57-.06v16.79s1.87-.02,1.87-.02l.02-7.13c1.02-.07,2.1-.09,2.91.44.72.48.73,1.59.76,2.38l.13,4.2c.66.11,1.38.14,1.97.11ZM136.47,246.57c-.74-.09-1.4-.08-1.8.08l-2.57,7.87-2.57-7.98h-1.95s3.38,10.79,3.38,10.79c.59,1.87-.19,3.92.17,5.89l1.77.05c.32-1.98-.43-4.04.15-5.89l3.41-10.81ZM89.47,284.3c1.92-2.38,1.05-5.65-1.03-7.42-1.89-1.6-4.01-3.06-3.37-5.68.23-.94,1.05-1.5,1.87-1.44.88.06,1.58.75,1.66,1.69l.11,1.31h1.72c.09-1.51-.08-3.18-1.49-4.12s-3.79-.67-4.89.66c-1.74,2.11-1.13,5.28.81,6.99l2.57,2.27c1.02.9,1.39,2.31,1.12,3.59-.22,1.02-1.11,1.59-1.98,1.52-.99-.08-1.67-.86-1.72-1.91l-.07-1.56-1.69-.03c-.12,1.55-.16,3.17,1.1,4.32s4.04,1.32,5.28-.21ZM123.21,281.89c-.03,1.26-1.13,1.85-2.07,1.78s-1.84-.89-1.84-2.02v-9.87c0-1.23,1.04-2.05,2.02-2.03,1.19.03,1.92.9,1.93,2.16v1.87s1.82.06,1.82.06c-.03-1.1-.04-2.08-.19-3.04-.29-1.82-1.74-2.67-3.44-2.76-2.07-.11-3.92,1.16-3.98,3.43-.09,3.48-.09,7,0,10.48.06,2.27,1.91,3.52,3.98,3.43,1.78-.08,3.26-1.05,3.49-2.96.13-1.13.12-2.24.1-3.46l-1.74.07-.07,2.84ZM146.36,281.87v-10.4c0-2.2-1.79-3.43-3.81-3.43s-3.67,1.28-3.73,3.44c-.1,3.47-.1,6.99,0,10.45.06,2.16,1.75,3.45,3.73,3.46s3.8-1.23,3.8-3.52ZM98.08,277.43l.02-1.65-4.06-.03v-5.74s5.02-.02,5.02-.02l-.07-1.67h-6.84s0,16.8,0,16.8h6.88s.01-1.67.01-1.67l-5.01-.02v-5.98s4.03-.02,4.03-.02ZM107.43,283.45l-4.75-.02v-15.05s-1.88-.04-1.88-.04v16.79s6.65-.01,6.65-.01v-1.66ZM114.88,277.43l.02-1.65-4.06-.03v-5.74s5.02-.02,5.02-.02l-.07-1.67h-6.84s0,16.8,0,16.8h6.88s.01-1.67.01-1.67l-5.01-.02v-5.98s4.03-.02,4.03-.02ZM130.8,285.07v-15.06s3.06-.02,3.06-.02v-1.65s-7.94-.01-7.94-.01l-.07,1.65,3.07.05v15.04s1.89,0,1.89,0ZM137.24,268.32h-1.88v16.8h1.88v-16.8ZM156.2,285.03v-16.64s-1.64-.06-1.64-.06l-.11,11.4-3.73-11.39h-2.4s0,16.77,0,16.77h1.68s.09-12.85.09-12.85l4.16,12.86,1.95-.09Z"/><rect class="cls-1" x="103.94" y="95.34" width="77.65" height="30.14" transform="translate(32.32 253.15) rotate(-89.99)"/><path class="cls-1" d="M118.94,133.58c-1.51,7-6.66,12.44-13.17,14.78-2.02.73-3.81.88-5.97.91-6.47.12-12.93-2.85-16.23-8.65-2.5-4.4-2.67-10.12-.56-14.73,2.42-5.29,8.11-8.29,13.79-7.81,4.28.36,8,2.93,9.93,6.71,1.35,2.66,1.5,5.87.45,8.59-.98,2.55-3.37,3.93-5.96,4.45-2.9.58-6.04-.26-7.81-2.73-1.23-1.72-1.22-4-.51-5.93l4.05-.02c.16,1.23.66,2.29,1.48,2.8,1.06.66,2.7.68,3.45-.37.91-1.27.63-3.21-.21-4.53-1.67-2.62-4.89-3.93-7.85-3.33-6.52,1.32-7.92,9.08-6.02,13.07s6.04,6.66,10.61,6.85,8.77-1.43,11.66-4.78c5.87-6.79,4.46-16.9-2.7-22.16-5.62-4.13-10.43-5.03-15.84-8.37-2.76-1.7-5.15-3.75-6.67-6.71-2.97-5.76-3.61-12.79-1.02-18.86,3.84-9,14.09-13.67,23.44-10.92,5.02,1.47,9.13,5.17,11.26,9.9,3.2,7.11.07,17.43-8.55,19.75-2.55.69-5.27.94-7.88.25-3.86-1.02-7.04-4.06-8.19-7.85-.92-3.02-.53-6.42,1.55-8.78,2.37-2.69,6.38-3.22,9.57-1.99,3.43,1.33,4.63,4.96,3.12,8.13l-3.86-.02c-.18-1.37-.7-2.53-1.87-2.89-1.26-.39-2.72-.04-3.29,1.26-.96,2.18.05,4.58,2.05,5.81s4.39,1.64,6.83,1.08,4.65-2.52,5.6-5.09c1.56-4.24.28-9.46-3.56-12.16-4.32-3.05-10.38-3.46-14.99-.8-3.92,2.26-6.47,6.45-7.25,10.8-.49,2.72.09,5.41.97,7.87,1.28,3.57,3.97,5.98,7.37,7.44,5.81,2.5,12.55,5.16,16.93,9.65,4.97,5.08,7.4,12.18,5.85,19.37Z"/><path class="cls-1" d="M90.29,195.97c3.05-6.5,8.97-8.43,15.36-7.31,3.99.7,7.16,3.19,8.81,6.9,1.24,2.79,1.9,5.79,1.91,8.92v14.15c.02,3.08-.62,6-1.81,8.78-1.84,4.28-5.42,7.29-9.98,8.38-3.67.88-7.44.86-11.09-.08-8.04-2.07-11.6-9.57-11.6-17.35v-40.01c0-7.93,3.31-15.59,11.58-17.62,3.61-.89,7.31-.9,10.93-.11,9.38,2.04,12.18,10.98,11.8,19.58h-7.85c.02-2.48.01-4.7-.69-6.97-1.5-4.87-5.95-6.2-10.56-5.41-2.79.47-4.79,2.35-5.82,4.94-.67,2.09-1.03,4.22-1.03,6.48l.03,16.73ZM98.75,228.77c2.91.06,5.6-.73,7.28-3.01,1.39-1.87,2.06-4.24,2.06-6.65l.03-12.71c.01-4.09-1.43-8.55-5.69-9.87-2.34-.73-4.84-.69-7.13.23-3.88,1.56-5.05,5.96-5.05,9.78v11.71c0,5.37,2.22,10.38,8.49,10.51Z"/><polygon class="cls-1" points="138.26 235.59 129.82 235.65 148.92 168.37 123.46 168.35 123.53 160.8 157.44 160.8 157.41 168.29 138.26 235.59"/><polygon class="cls-1" points="156.2 285.03 154.25 285.11 150.09 272.25 150 285.11 148.32 285.1 148.32 268.33 150.72 268.33 154.45 279.73 154.56 268.33 156.2 268.39 156.2 285.03"/><path class="cls-1" d="M126.7,263.24c-.59.03-1.32,0-1.97-.11l-.13-4.2c-.02-.79-.04-1.9-.76-2.38-.8-.54-1.89-.52-2.91-.44l-.02,7.13-1.87.02v-16.79s4.57.06,4.57.06c1.52.02,2.76,1.36,2.8,2.81l.06,2.67c.03,1.3-.55,2.27-1.72,3.12,2.82,1.67,1.19,5.02,1.94,8.12ZM123.74,248.45c-.73-.4-1.87-.31-2.81-.25v6.19c.96.06,2,.08,2.75-.3,1.38-.71,1.27-4.97.06-5.63Z"/><path class="cls-1" d="M146.36,281.87c0,2.29-1.81,3.53-3.8,3.52s-3.67-1.29-3.73-3.46c-.1-3.46-.1-6.99,0-10.45.06-2.17,1.76-3.44,3.73-3.44s3.8,1.23,3.8,3.43v10.4ZM144.49,281.8v-10.26c-.01-1.11-1.16-1.86-2-1.79s-1.82.79-1.82,1.84v10.25c0,1.13,1.07,1.87,2.01,1.84.78-.03,1.81-.76,1.81-1.88Z"/><path class="cls-1" d="M115.33,246.58l1.8-.09-.05,13.65c0,2.06-1.67,3.36-3.55,3.41-2,.05-3.8-1.24-3.8-3.42l-.05-13.64,1.88.05.02,13.32c0,1.16.93,1.87,1.82,1.89,1.19.02,1.93-.82,1.93-2.07v-13.1Z"/><path class="cls-1" d="M89.47,284.3c-1.23,1.53-3.98,1.39-5.28.21s-1.22-2.77-1.1-4.32l1.69.03.07,1.56c.05,1.05.73,1.82,1.72,1.91.87.07,1.76-.5,1.98-1.52.27-1.28-.1-2.69-1.12-3.59l-2.57-2.27c-1.94-1.71-2.55-4.88-.81-6.99,1.1-1.33,3.55-1.56,4.89-.66s1.58,2.61,1.49,4.12h-1.72s-.11-1.32-.11-1.32c-.08-.94-.78-1.63-1.66-1.69-.82-.06-1.64.51-1.87,1.44-.63,2.62,1.49,4.08,3.37,5.68,2.08,1.76,2.95,5.04,1.03,7.42Z"/><path class="cls-1" d="M123.21,281.89l.07-2.84,1.74-.07c.02,1.21.03,2.33-.1,3.46-.22,1.91-1.71,2.88-3.49,2.96-2.07.1-3.92-1.16-3.98-3.43-.09-3.48-.09-7,0-10.48.06-2.27,1.91-3.53,3.98-3.43,1.7.09,3.16.94,3.44,2.76.15.96.16,1.93.19,3.04l-1.81-.06v-1.87c-.02-1.25-.75-2.13-1.95-2.16-.98-.02-2.02.8-2.02,2.03v9.87c0,1.13.89,1.95,1.84,2.02s2.04-.52,2.07-1.78Z"/><polygon class="cls-1" points="98.08 277.43 94.04 277.45 94.04 283.43 99.05 283.45 99.04 285.11 92.16 285.12 92.16 268.32 98.99 268.32 99.06 269.99 94.04 270.01 94.04 275.75 98.1 275.78 98.08 277.43"/><polygon class="cls-1" points="114.88 277.43 110.84 277.45 110.84 283.43 115.85 283.45 115.84 285.11 108.96 285.12 108.96 268.32 115.79 268.32 115.86 269.99 110.84 270.01 110.84 275.75 114.9 275.78 114.88 277.43"/><path class="cls-1" d="M136.47,246.57l-3.41,10.81c-.59,1.86.17,3.91-.15,5.89l-1.77-.05c-.36-1.97.42-4.03-.17-5.89l-3.38-10.79h1.95s2.57,7.98,2.57,7.98l2.57-7.87c.39-.16,1.06-.17,1.8-.08Z"/><polygon class="cls-1" points="130.8 285.07 128.92 285.06 128.92 270.02 125.85 269.97 125.92 268.32 133.85 268.33 133.86 269.98 130.8 270 130.8 285.07"/><polygon class="cls-1" points="107.43 283.45 107.45 285.11 100.8 285.12 100.8 268.34 102.68 268.38 102.68 283.43 107.43 283.45"/><path class="cls-1" d="M106.01,262.98c-.95.33-1.85.31-2.8.33v-1.64c.74-.08,1.39-.16,1.93-.33.47-.15.94-1.14.94-1.72v-13.12s1.89.05,1.89.05l-.03,13.38c0,1.22-.74,2.64-1.93,3.06Z"/><rect class="cls-1" x="135.36" y="268.32" width="1.88" height="16.8"/><path d="M98.75,228.77c-6.28-.13-8.49-5.15-8.49-10.51v-11.71c0-3.82,1.17-8.22,5.05-9.78,2.29-.92,4.79-.96,7.13-.23,4.26,1.32,5.7,5.78,5.69,9.87l-.03,12.71c0,2.4-.68,4.77-2.06,6.65-1.68,2.27-4.37,3.07-7.28,3.01Z"/><path d="M123.74,248.45c1.21.66,1.32,4.92-.06,5.63-.76.39-1.79.36-2.76.3v-6.19c.95-.05,2.08-.14,2.81.25Z"/><path d="M144.49,281.8c0,1.12-1.03,1.85-1.81,1.88-.93.03-2.01-.71-2.01-1.84v-10.25c0-1.05.96-1.77,1.82-1.84s1.98.68,1.98,1.79v10.26Z"/></g></svg>