<?xml version="1.0" encoding="UTF-8"?>
<svg id="Layer_2" xmlns="http://www.w3.org/2000/svg" version="1.1" viewBox="68.6 59.8 102.5 240.5">
  <!-- Generator: Adobe Illustrator 30.2.1, SVG Export Plug-In . SVG Version: 2.1.1 Build 1)  -->
  <g id="Layer_1-2">
    <path d="M171.1,59.8v240.5h-102.5V59.8h102.5ZM118.9,133.6c1.6-7.2-.9-14.3-5.8-19.4-4.4-4.5-11.1-7.2-16.9-9.7-3.4-1.5-6.1-3.9-7.4-7.4-.9-2.5-1.5-5.2-1-7.9.8-4.3,3.3-8.5,7.2-10.8,4.6-2.7,10.7-2.2,15,.8,3.8,2.7,5.1,7.9,3.6,12.2-.9,2.6-3.1,4.5-5.6,5.1s-4.8.2-6.8-1.1-3-3.6-2.1-5.8c.6-1.3,2-1.7,3.3-1.3,1.2.4,1.7,1.5,1.9,2.9h3.9c1.5-3.2.3-6.8-3.1-8.1-3.2-1.2-7.2-.7-9.6,2-2.1,2.4-2.5,5.8-1.6,8.8,1.2,3.8,4.3,6.8,8.2,7.8,2.6.7,5.3.4,7.9-.2,8.6-2.3,11.8-12.6,8.6-19.8-2.1-4.7-6.2-8.4-11.3-9.9-9.3-2.8-19.6,1.9-23.4,10.9-2.6,6.1-1.9,13.1,1,18.9,1.5,3,3.9,5,6.7,6.7,5.4,3.3,10.2,4.2,15.8,8.4,7.2,5.3,8.6,15.4,2.7,22.2-2.9,3.3-7.2,5-11.7,4.8s-8.7-2.8-10.6-6.9-.5-11.7,6-13.1c3-.6,6.2.7,7.8,3.3.8,1.3,1.1,3.3.2,4.5-.7,1-2.4,1-3.4.4-.8-.5-1.3-1.6-1.5-2.8h-4.1c-.7,1.9-.7,4.2.5,5.9,1.8,2.5,4.9,3.3,7.8,2.7,2.6-.5,5-1.9,6-4.4,1.1-2.7.9-5.9-.4-8.6-1.9-3.8-5.7-6.3-9.9-6.7-5.7-.5-11.4,2.5-13.8,7.8-2.1,4.6-1.9,10.3.6,14.7,3.3,5.8,9.8,8.8,16.2,8.6,2.2,0,3.9-.2,6-.9,6.5-2.3,11.7-7.8,13.2-14.8h0ZM127.7,71.6v77.7s30.1,0,30.1,0v-77.6s-30.1,0-30.1,0h0ZM90.3,196v-16.7c0-2.3.3-4.4,1-6.5,1-2.6,3-4.5,5.8-4.9,4.6-.8,9.1.5,10.6,5.4.7,2.3.7,4.5.7,7h7.8c.4-8.6-2.4-17.5-11.8-19.6-3.6-.8-7.3-.8-10.9.1-8.3,2-11.6,9.7-11.6,17.6v40c0,7.8,3.6,15.3,11.6,17.4,3.7.9,7.4,1,11.1,0,4.6-1.1,8.1-4.1,10-8.4,1.2-2.8,1.8-5.7,1.8-8.8v-14.1c0-3.1-.7-6.1-1.9-8.9-1.7-3.7-4.8-6.2-8.8-6.9-6.4-1.1-12.3.8-15.4,7.3h0ZM138.3,235.6l19.1-67.3v-7.5s-33.9,0-33.9,0v7.6c0,0,25.4,0,25.4,0l-19.1,67.3h8.4q0,0,0,0ZM106,263c1.2-.4,1.9-1.8,1.9-3.1v-13.4s-1.9,0-1.9,0v13.1c0,.6-.5,1.6-.9,1.7-.5.2-1.2.2-1.9.3v1.6c.9,0,1.8,0,2.8-.3h0ZM115.3,246.6v13.1c0,1.2-.8,2.1-1.9,2.1-.9,0-1.8-.7-1.8-1.9v-13.3s-1.9,0-1.9,0v13.6c0,2.2,1.9,3.5,3.9,3.4,1.9,0,3.5-1.4,3.6-3.4v-13.6c0,0-1.8,0-1.8,0h0ZM126.7,263.2c-.8-3.1.9-6.4-1.9-8.1,1.2-.8,1.8-1.8,1.7-3.1v-2.7c0-1.4-1.3-2.8-2.9-2.8h-4.6c0,0,0,16.7,0,16.7h1.9s0-7.1,0-7.1c1,0,2.1,0,2.9.4.7.5.7,1.6.8,2.4v4.2c.8.1,1.5.1,2.1.1h0ZM136.5,246.6c-.7,0-1.4,0-1.8,0l-2.6,7.9-2.6-8h-1.9l3.4,10.8c.6,1.9-.2,3.9.2,5.9h1.8c.3-1.9-.4-4,.1-5.8l3.4-10.8h0ZM89.5,284.3c1.9-2.4,1.1-5.6-1-7.4-1.9-1.6-4-3.1-3.4-5.7.2-.9,1.1-1.5,1.9-1.4.9,0,1.6.8,1.7,1.7v1.3h1.8c0-1.5,0-3.2-1.5-4.1s-3.8-.7-4.9.7c-1.7,2.1-1.1,5.3.8,7l2.6,2.3c1,.9,1.4,2.3,1.1,3.6-.2,1-1.1,1.6-2,1.5-1,0-1.7-.9-1.7-1.9v-1.6c0,0-1.8,0-1.8,0-.1,1.5-.2,3.2,1.1,4.3s4,1.3,5.3-.2h0ZM123.2,281.9c0,1.3-1.1,1.9-2.1,1.8s-1.8-.9-1.8-2v-9.9c0-1.2,1-2,2-2,1.2,0,1.9.9,1.9,2.2v1.9h1.8c0-1,0-2-.2-3-.3-1.8-1.7-2.7-3.4-2.8-2.1-.1-3.9,1.2-4,3.4,0,3.5,0,7,0,10.5,0,2.3,1.9,3.5,4,3.4,1.8,0,3.3-1,3.5-3,.1-1.1.1-2.2,0-3.5h-1.7c0,0,0,2.9,0,2.9h0ZM146.4,281.9v-10.4c0-2.2-1.8-3.4-3.8-3.4s-3.7,1.3-3.7,3.4c-.1,3.5-.1,7,0,10.5,0,2.2,1.8,3.5,3.7,3.5s3.8-1.2,3.8-3.5h0ZM98.1,277.4v-1.6s-4,0-4,0v-5.7h5s0-1.7,0-1.7h-6.8v16.8h6.9v-1.7s-5,0-5,0v-6h4s0,0,0,0ZM107.4,283.5h-4.8v-15.1h-1.9s0,16.8,0,16.8h6.7v-1.7h0ZM114.9,277.4v-1.6s-4,0-4,0v-5.7h5s0-1.7,0-1.7h-6.8v16.8h6.9v-1.7s-5,0-5,0v-6h4s0,0,0,0ZM130.8,285.1v-15.1h3.1v-1.7h-7.9s0,1.6,0,1.6h3.1v15.1h1.9,0ZM137.2,268.3h-1.9v16.8h1.9v-16.8ZM156.2,285v-16.6h-1.6c0,0-.1,11.3-.1,11.3l-3.7-11.4h-2.4v16.8h1.7v-12.9c0,0,4.2,12.9,4.2,12.9h1.9q0,0,0,0Z"/>
    <path d="M98.8,228.8c-6.3-.1-8.5-5.1-8.5-10.5v-11.7c0-3.8,1.2-8.2,5.1-9.8,2.3-.9,4.8-1,7.1-.2,4.3,1.3,5.7,5.8,5.7,9.9v12.7c0,2.4-.7,4.8-2.1,6.6-1.7,2.3-4.4,3.1-7.3,3h0Z"/>
    <path d="M123.7,248.4c1.2.7,1.3,4.9,0,5.6-.8.4-1.8.4-2.8.3v-6.2c.9,0,2.1-.1,2.8.2h0Z"/>
    <path d="M144.5,281.8c0,1.1-1,1.9-1.8,1.9-.9,0-2-.7-2-1.8v-10.2c0-1,1-1.8,1.8-1.8s2,.7,2,1.8v10.3h0Z"/>
  </g>
</svg>